<svg xmlns="http://www.w3.org/2000/svg" xmlns:xlink="http://www.w3.org/1999/xlink" xmlns:lucid="lucid" width="1965.88" height="1316.67"><g transform="translate(136.08222471327218 7.06666666668994)" lucid:page-tab-id="0_0"><path d="M-1806.87 0h3677.74v1322.84h-3677.74z" fill="#fff"/><path d="M165.78 98.12c0 10.9-8.84 19.75-19.75 19.75-10.9 0-19.75-8.85-19.75-19.75s8.84-19.75 19.75-19.75c10.9 0 19.75 8.84 19.75 19.75z" stroke="#5e5e5e" stroke-width="3" fill="#fff"/><path d="M146.03 117.87v49.3a20.7 20.7 0 0 0 3.2 11.07l36.8 58.13m-40-63.2l-40 63.2m0-98.75h80" stroke="#5e5e5e" stroke-width="3" fill="none"/><path d="M106.03 84.37a6 6 0 0 1 6-6h68a6 6 0 0 1 6 6v168a6 6 0 0 1-6 6h-68a6 6 0 0 1-6-6z" fill="none"/><use xlink:href="#a" transform="matrix(1,0,0,1,26.03018867923754,236.36666666665508) translate(65.84876543209876 19.555555555555557)"/><path d="M165.78 1088.48c0 10.9-8.84 19.75-19.75 19.75-10.9 0-19.75-8.84-19.75-19.75 0-10.9 8.84-19.75 19.75-19.75 10.9 0 19.75 8.85 19.75 19.75z" stroke="#5e5e5e" stroke-width="3" fill="#edf5ff"/><path d="M146.03 1108.23v49.3a20.7 20.7 0 0 0 3.2 11.07l36.8 58.13m-40-63.2l-40 63.2m0-98.75h80" stroke="#5e5e5e" stroke-width="3" fill="none"/><path d="M106.03 1074.73a6 6 0 0 1 6-6h68a6 6 0 0 1 6 6v168a6 6 0 0 1-6 6h-68a6 6 0 0 1-6-6z" fill="none"/><use xlink:href="#b" transform="matrix(1,0,0,1,26.03018867923754,1226.7331884120292) translate(41.4043209876543 19.555555555555557)"/><path d="M156.28 755.22c0 10.9-8.84 19.75-19.75 19.75-10.9 0-19.75-8.84-19.75-19.75 0-10.9 8.85-19.75 19.75-19.75s19.75 8.84 19.75 19.75z" stroke="#5e5e5e" stroke-width="3" fill="#fcfcca"/><path d="M136.53 774.97v49.3a20.7 20.7 0 0 0 3.2 11.07l36.8 58.13m-40-63.2l-40 63.2m0-98.75h80" stroke="#5e5e5e" stroke-width="3" fill="none"/><path d="M96.53 741.47a6 6 0 0 1 6-6h68a6 6 0 0 1 6 6v168a6 6 0 0 1-6 6h-68a6 6 0 0 1-6-6z" fill="none"/><use xlink:href="#c" transform="matrix(1,0,0,1,16.533333333325572,893.4705561569183) translate(66.45987654320986 19.555555555555557)"/><path d="M165.78 412.15c0 10.9-8.84 19.75-19.75 19.75-10.9 0-19.75-8.84-19.75-19.75 0-10.9 8.84-19.75 19.75-19.75 10.9 0 19.75 8.84 19.75 19.75z" stroke="#5e5e5e" stroke-width="3" fill="#e3fae3"/><path d="M146.03 431.9v49.3a20.7 20.7 0 0 0 3.2 11.07l36.8 58.13m-40-63.2l-40 63.2m0-98.75h80" stroke="#5e5e5e" stroke-width="3" fill="none"/><path d="M106.03 398.4a6 6 0 0 1 6-6h68a6 6 0 0 1 6 6v168a6 6 0 0 1-6 6h-68a6 6 0 0 1-6-6z" fill="none"/><use xlink:href="#d" transform="matrix(1,0,0,1,26.03018867923754,550.4) translate(71.17901234567901 19.555555555555557)"/><path d="M143.57 1147.2l-10.6-3.6-11.3-4.38-11.08-4.84-10.92-5.32-10.75-5.8-10.6-6.33-10.52-6.88-10.4-7.45-10.35-8.08-10.3-8.76-10.23-9.48-10.2-10.28-10.18-11.14-10.15-12.1-10.12-13.12-10.07-14.27-10-15.53-9.92-16.92-9.8-18.4-9.6-20.08-9.37-21.86-9.02-23.77-8.58-25.78-8-27.9-7.28-30.06-6.36-32.14-5.28-34.08-4-35.75-2.6-37.03-1.06-37.77.52-37.9 2.08-37.4 3.54-36.24 4.84-34.55 5.94-32.43 6.82-30.08 7.48-27.6 7.94-25.06 8.24-22.66 8.4-20.38 8.42-18.3 8.4-16.37 8.33-14.67 8.2-13.13 8.04-11.76 7.9-10.55 7.72-9.48 7.56-8.52 7.4-7.66 7.25-6.92 7.1-6.23 7-5.6 6.88-5.1 6.8-4.57 6.7-4.12 6.63-3.7 6.6-3.33 6.54-2.98 6.53-2.65 6.52-2.32 6.55-2.03 6.57-1.74 6.62-1.45 6.7-1.18 6.76-.9 6.88-.63 7-.35h1.78" stroke="#5e5e5e" stroke-width="2" stroke-linejoin="round" fill="none"/><path d="M143.55 1147.2l3.8 1.3" stroke="#5e5e5e" stroke-width="2" fill="none"/><path d="M141.33 168.26l-14.42 4.14.33-9.26z" stroke="#5e5e5e" stroke-width="2" fill="#5e5e5e"/><path d="M134.2 813.7l-7.38-4.98-8.6-6.36-9.05-7.28-9.47-8.3-9.9-9.44-10.28-10.67-10.64-12-10.9-13.4-11.1-14.84-11.1-16.26-11-17.62-10.7-18.84-10.18-19.85-9.52-20.63-8.7-21.14-7.75-21.35-6.75-21.3-5.7-21-4.64-20.5-3.64-19.85-2.68-19.1-1.8-18.3-.96-17.47-.22-16.6.45-15.8 1.04-14.98 1.6-14.22 2.1-13.5 2.54-12.83 2.96-12.2 3.34-11.63 3.7-11.08 4-10.58 4.36-10.13 4.65-9.7 4.95-9.3 5.25-8.96 5.56-8.63 5.87-8.3 6.2-8.03 6.5-7.77 6.88-7.5 7.25-7.3 7.64-7.06 8.06-6.85L55 213.6l9.04-6.47 9.6-6.28 10.2-6.07 10.9-5.9 11.66-5.66 12.5-5.45 8.22-3.18" stroke="#5e5e5e" stroke-width="2" stroke-linejoin="round" fill="none"/><path d="M134.18 813.7l3.33 2.25" stroke="#5e5e5e" stroke-width="2" fill="none"/><path d="M141.5 169.46l-11.88 9.16-3.1-8.73z" stroke="#5e5e5e" stroke-width="2" fill="#5e5e5e"/><path d="M254.8 103.6a6 6 0 0 1 6-6h1543a6 6 0 0 1 6 6v1180a6 6 0 0 1-6 6h-1543a6 6 0 0 1-6-6z" stroke="#5e5e5e" stroke-width="3" fill="#fff"/><path d="M771.63 18.93a6 6 0 0 1 6-6h509.34a6 6 0 0 1 6 6V91.6a6 6 0 0 1-6 6H777.63a6 6 0 0 1-6-6z" stroke="#000" stroke-opacity="0" stroke-width="3" fill="#fff" fill-opacity="0"/><use xlink:href="#e" transform="matrix(1,0,0,1,776.6333333333798,17.93333333331006) translate(29.320987654321016 43.638888888888886)"/><use xlink:href="#f" transform="matrix(1,0,0,1,776.6333333333798,17.93333333331006) translate(189.80246913580248 43.638888888888886)"/><use xlink:href="#g" transform="matrix(1,0,0,1,776.6333333333798,17.93333333331006) translate(261.7037037037037 43.638888888888886)"/><use xlink:href="#h" transform="matrix(1,0,0,1,776.6333333333798,17.93333333331006) translate(304.91358024691357 43.638888888888886)"/><path d="M589.4 128.37c17.67 0 32 17.9 32 40s-14.33 40-32 40h-96c-17.68 0-32-17.9-32-40s14.32-40 32-40z" stroke="#5e5e5e" stroke-width="3" fill="#f4d9ff"/><use xlink:href="#i" transform="matrix(1,0,0,1,466.3937106918472,133.36666666665505) translate(1.1234567901234414 39.24305555555556)"/><use xlink:href="#j" transform="matrix(1,0,0,1,466.3937106918472,133.36666666665505) translate(68.82098765432097 39.24305555555556)"/><path d="M1105.2 664.35c21.64 0 39.2 17.9 39.2 40s-17.56 40-39.2 40H987.6c-21.66 0-39.2-17.9-39.2-40s17.54-40 39.2-40z" stroke="#5e5e5e" stroke-width="3" fill="#f4d9ff"/><use xlink:href="#k" transform="matrix(1,0,0,1,953.3874300812954,669.3522549657839) translate(9.5833333333333 39.24305555555556)"/><path d="M597.5 333.37c17.66 0 32 21.94 32 49s-14.34 49-32 49h-96c-17.68 0-32-21.94-32-49s14.32-49 32-49z" stroke="#5e5e5e" stroke-width="3" fill="#e3fae3"/><use xlink:href="#l" transform="matrix(1,0,0,1,474.4917630158384,338.3700538600367) translate(11.958703703703685 22.305555555555557)"/><use xlink:href="#m" transform="matrix(1,0,0,1,474.4917630158384,338.3700538600367) translate(11.478395061728392 51.63888888888889)"/><use xlink:href="#n" transform="matrix(1,0,0,1,474.4917630158384,338.3700538600367) translate(78.83641975308642 51.63888888888889)"/><use xlink:href="#o" transform="matrix(1,0,0,1,474.4917630158384,338.3700538600367) translate(41.8691975308642 80.97222222222223)"/><path d="M597.5 447.36c17.66 0 32 17.9 32 40s-14.34 40-32 40h-96c-17.68 0-32-17.9-32-40s14.32-40 32-40z" stroke="#5e5e5e" stroke-width="3" fill="#e3fae3"/><use xlink:href="#p" transform="matrix(1,0,0,1,474.4917630158384,452.3611544129103) translate(22.82290123456788 26.118055555555557)"/><use xlink:href="#q" transform="matrix(1,0,0,1,474.4917630158384,452.3611544129103) translate(25.742654320987647 55.45138888888889)"/><use xlink:href="#r" transform="matrix(1,0,0,1,474.4917630158384,452.3611544129103) translate(63.699444444444445 55.45138888888889)"/><path d="M598.43 552.35c17.67 0 32 17.9 32 40s-14.33 40-32 40h-96c-17.67 0-32-17.9-32-40s14.33-40 32-40z" stroke="#5e5e5e" stroke-width="3" fill="#e3fae3"/><use xlink:href="#s" transform="matrix(1,0,0,1,475.4311066504846,557.3522549657839) translate(5.168580246913558 26.118055555555557)"/><use xlink:href="#t" transform="matrix(1,0,0,1,475.4311066504846,557.3522549657839) translate(131.26117283950617 26.118055555555557)"/><use xlink:href="#u" transform="matrix(1,0,0,1,475.4311066504846,557.3522549657839) translate(21.63462962962962 55.45138888888889)"/><use xlink:href="#r" transform="matrix(1,0,0,1,475.4311066504846,557.3522549657839) translate(67.80746913580248 55.45138888888889)"/><path d="M1704.43 253.03c28.94 0 52.4 26.27 52.4 58.68 0 32.43-23.46 58.7-52.4 58.7h-157.2c-28.94 0-52.4-26.27-52.4-58.7 0-32.4 23.46-58.67 52.4-58.67z" stroke="#5e5e5e" stroke-width="3" fill="#f4d9ff"/><use xlink:href="#v" transform="matrix(1,0,0,1,1499.8320246217315,258.025563606633) translate(58.38462962962961 29.680555555555557)"/><use xlink:href="#t" transform="matrix(1,0,0,1,1499.8320246217315,258.025563606633) translate(179.04512345679012 29.680555555555557)"/><use xlink:href="#w" transform="matrix(1,0,0,1,1499.8320246217315,258.025563606633) translate(54.83950617283949 59.01388888888889)"/><use xlink:href="#x" transform="matrix(1,0,0,1,1499.8320246217315,258.025563606633) translate(156.41975308641975 59.01388888888889)"/><use xlink:href="#y" transform="matrix(1,0,0,1,1499.8320246217315,258.025563606633) translate(59.56364197530862 88.34722222222223)"/><path d="M1710.43 410c25.63 0 46.4 26.26 46.4 58.67 0 32.42-20.77 58.7-46.4 58.7h-139.2c-25.62 0-46.4-26.28-46.4-58.7 0-32.4 20.78-58.68 46.4-58.68z" stroke="#5e5e5e" stroke-width="3" fill="#f4d9ff"/><use xlink:href="#v" transform="matrix(1,0,0,1,1529.8320246217315,414.98671801954333) translate(41.202530864197506 29.680555555555557)"/><use xlink:href="#z" transform="matrix(1,0,0,1,1529.8320246217315,414.98671801954333) translate(161.86302469135802 29.680555555555557)"/><use xlink:href="#A" transform="matrix(1,0,0,1,1529.8320246217315,414.98671801954333) translate(34.7469135802469 59.01388888888889)"/><use xlink:href="#B" transform="matrix(1,0,0,1,1529.8320246217315,414.98671801954333) translate(128.31481481481484 59.01388888888889)"/><use xlink:href="#y" transform="matrix(1,0,0,1,1529.8320246217315,414.98671801954333) translate(44.56364197530862 88.34722222222223)"/><path d="M548.1 1026c24.5 0 44.4 17.9 44.4 40s-19.9 40-44.4 40H414.9c-24.53 0-44.4-17.9-44.4-40s19.87-40 44.4-40z" stroke="#5e5e5e" stroke-width="3" fill="#ffd9d9"/><use xlink:href="#C" transform="matrix(1,0,0,1,375.4917630158384,1031.0000000000002) translate(43.60376543209875 26.118055555555557)"/><use xlink:href="#x" transform="matrix(1,0,0,1,375.4917630158384,1031.0000000000002) translate(127.6654938271605 26.118055555555557)"/><use xlink:href="#y" transform="matrix(1,0,0,1,375.4917630158384,1031.0000000000002) translate(39.56364197530862 55.45138888888889)"/><path d="M548.1 1134.73c24.5 0 44.4 25.52 44.4 57s-19.9 57-44.4 57H414.9c-24.53 0-44.4-25.52-44.4-57s19.87-57 44.4-57z" stroke="#5e5e5e" stroke-width="3" fill="#ffd9d9"/><use xlink:href="#D" transform="matrix(1,0,0,1,375.4917630158384,1139.7331884120292) translate(34.097592592592584 26.055555555555557)"/><use xlink:href="#E" transform="matrix(1,0,0,1,375.4917630158384,1139.7331884120292) translate(138.5296913580247 26.055555555555557)"/><use xlink:href="#F" transform="matrix(1,0,0,1,375.4917630158384,1139.7331884120292) translate(76.19135802469135 55.38888888888889)"/><use xlink:href="#G" transform="matrix(1,0,0,1,375.4917630158384,1139.7331884120292) translate(13.557469135802444 84.72222222222223)"/><path d="M148.57 168.37H441.4M148.6 168.37h-4.03" stroke="#5e5e5e" stroke-width="2" fill="none"/><path d="M456.66 168.37L442.4 173v-9.27z" stroke="#5e5e5e" stroke-width="2" fill="#5e5e5e"/><path d="M704.9 802.53c45.06 0 81.6 37.16 81.6 83s-36.54 83-81.6 83H460.1c-45.08 0-81.6-37.16-81.6-83s36.52-83 81.6-83z" stroke="#5e5e5e" stroke-width="3" fill="#cfe4ff"/><use xlink:href="#H" transform="matrix(1,0,0,1,383.4917630158384,807.5311076879152) translate(54.17166666666667 39.05555555555556)"/><use xlink:href="#u" transform="matrix(1,0,0,1,383.4917630158384,807.5311076879152) translate(123.29512345679012 39.05555555555556)"/><use xlink:href="#m" transform="matrix(1,0,0,1,383.4917630158384,807.5311076879152) translate(169.46796296296296 39.05555555555556)"/><use xlink:href="#I" transform="matrix(1,0,0,1,383.4917630158384,807.5311076879152) translate(236.82598765432098 39.05555555555556)"/><use xlink:href="#J" transform="matrix(1,0,0,1,383.4917630158384,807.5311076879152) translate(18.688271604938194 68.38888888888889)"/><use xlink:href="#K" transform="matrix(1,0,0,1,383.4917630158384,807.5311076879152) translate(162.36728395061726 68.38888888888889)"/><use xlink:href="#L" transform="matrix(1,0,0,1,383.4917630158384,807.5311076879152) translate(299.39197530864203 68.38888888888889)"/><use xlink:href="#M" transform="matrix(1,0,0,1,383.4917630158384,807.5311076879152) translate(348.14506172839515 68.38888888888889)"/><use xlink:href="#N" transform="matrix(1,0,0,1,383.4917630158384,807.5311076879152) translate(40.993827160493765 97.72222222222223)"/><use xlink:href="#O" transform="matrix(1,0,0,1,383.4917630158384,807.5311076879152) translate(152.28395061728392 97.72222222222223)"/><use xlink:href="#P" transform="matrix(1,0,0,1,383.4917630158384,807.5311076879152) translate(175.37037037037035 97.72222222222223)"/><use xlink:href="#Q" transform="matrix(1,0,0,1,383.4917630158384,807.5311076879152) translate(304.17901234567904 97.72222222222223)"/><use xlink:href="#R" transform="matrix(1,0,0,1,383.4917630158384,807.5311076879152) translate(153.57907407407404 127.05555555555556)"/><path d="M1218.92 705.1l-.7.17-1.05.08h-2v-2h1.92l.82-.06.53-.14zm-11.54.25h-3.9v-2h3.9zm-11.7 0h-3.9v-2h3.9zm-11.72 0h-3.9v-2h3.9zm-11.7 0h-3.9v-2h3.9zm-11.7 0h-3.9l-.02-2h3.9zm-11.72 0h-1.95v-2h1.94zm75.3-6.96l-.1 1.05-.15.68-1.96-.46.13-.54.06-.82v-1.93h2zm0-9.97h-2v-3.97h2zm0-11.9h-2v-3.98h2zm0-11.92h-2v-3.96h2zm0-11.9h-2v-3.97h2zm0-11.9h-2v-3.98h2zm0-11.92h-2v-3.97h2zm0-11.9h-2V613h2zm0-11.9h-2v-3.98h2zm0-11.92h-2v-3.97h2zm0-11.9h-2v-3.98h2zm0-11.92h-2v-3.97h2zm0-11.9h-2v-3.98h2zm0-11.92h-2v-3.97h2zm0-11.9h-2v-3.98h2zm0-11.9h-2v-3.98h2zm0-11.92h-2v-3.97h2zm0-11.9h-2v-3.98h2zm0-11.92h-2V482h2zm0-11.9h-2v-3.98h2zm0-11.92h-2v-3.97h2zm0-11.9h-2v-3.98h2zm0-11.92h-2v-3.96h2zm0-11.9h-2v-3.97h2zm0-11.9h-2v-3.98h2zm0-11.92h-2v-3.97h2zm0-11.9h-2v-3.98h2zm0-11.92h-2v-3.97h2zm0-11.9h-2v-3.98h2zm0-11.92h-2V351h2zm0-11.9h-2v-3.97h2zm0-11.9h-2v-3.98h2zm0-11.92h-2v-3.97h2zm0-11.9h-2v-3.98h2zm0-11.92h-2v-3.97h2zm0-11.9h-2v-3.98h2zm0-11.92h-2v-3.97h2zm0-11.9h-2v-3.98h2zm0-11.92h-2v-3.97h2zm0-11.9h-2v-3.97h2zm0-11.9h-2V220h2zm0-11.92h-2v-3.97h2zm0-11.9h-2v-3.98h2zm0-11.92h-2v-3.97h2zm-.1-15l.1 1.07v2.02h-2v-1.94l-.07-.8-.13-.55 1.95-.47zm-5.8-5.8l.68.16-.47 1.94-.53-.13-.83-.06h-1.96v-2h2.03zm-574.84 1.9h-2v-2h2zm12 0h-4v-2h4zm12 0h-4v-2h4zm11.98 0h-4v-2h4zm12 0h-4v-2h4zm12 0h-4v-2h4zm11.98 0h-4v-2h4zm12 0h-4v-2h4zm12 0h-4v-2h4zm12 0h-4v-2h4zm11.98 0h-4v-2h4zm12 0h-4v-2h4zm12 0h-4v-2h4zm11.98 0h-4v-2h4zm12 0h-4v-2h4zm12 0h-4v-2h4zm12 0h-4v-2h4zm11.98 0h-4v-2h4zm12 0h-4v-2h4zm12 0h-4v-2h4zm12 0h-4v-2h4zm11.98 0h-4v-2h4zm12 0h-4v-2h4zm12 0h-4v-2h4zm11.98 0h-4v-2h4zm12 0h-4v-2h4zm12 0h-4v-2h4zm12 0h-4v-2h4zm11.98 0h-4v-2h4zm12 0h-4v-2h4zm12 0h-4v-2h4zm12 0h-4v-2h4zm131.93 0h-4v-2h4zm12 0h-4v-2h4zm11.98 0h-4v-2h4zm12 0h-4v-2h4zm12 0h-4v-2h4zm12 0h-4v-2h4zm-71.98 0h-.83v-2h.83z" stroke="#5e5e5e" stroke-width=".05" fill="#5e5e5e"/><path d="M640.4 173l-14.27-4.63 14.27-4.64z" fill="#5e5e5e"/><path d="M641.4 174.38l-18.5-6 18.5-6.03zm-12.03-6l10.03 3.25v-6.52z" stroke="#5e5e5e" stroke-width=".05" fill="#5e5e5e"/><path d="M1146.9 705.35h-1.07l.06-.98-.05-1.02h1.06z" fill="#5e5e5e"/><path d="M1146.94 705.38h-1.14l.06-1-.03-1.05h1.1zm-1.06-2l.03 1-.05.95h1.04v-1.95z" stroke="#5e5e5e" stroke-width=".05" fill="#5e5e5e"/><use xlink:href="#S" transform="matrix(1,0,0,1,1019.1152040224194,153.6999999999884) translate(0.005000000000002558 19.555555555555557)"/><path d="M146.03 389.9V194.47" stroke="#5e5e5e" stroke-width="2" fill="none"/><path d="M147.03 391l-.93-.1-1.07.03v-1.06h2z" stroke="#5e5e5e" stroke-width=".05" fill="#5e5e5e"/><path d="M146.03 179.2l4.63 14.27h-9.26z" stroke="#5e5e5e" stroke-width="2" fill="#5e5e5e"/><path d="M145.47 1147.2l206.13-74.88M145.5 1147.18l-3.8 1.38" stroke="#5e5e5e" stroke-width="2" fill="none"/><path d="M365.95 1067.1l-11.83 9.23-3.16-8.7z" stroke="#5e5e5e" stroke-width="2" fill="#5e5e5e"/><path d="M145.5 1147.72l205.34 40.44M145.54 1147.73l-3.95-.78" stroke="#5e5e5e" stroke-width="2" fill="none"/><path d="M365.8 1191.1l-14.88 1.8 1.8-9.1z" stroke="#5e5e5e" stroke-width="2" fill="#5e5e5e"/><path d="M149.55 487.36h154.28a6 6 0 0 0 6-6V388.9a6 6 0 0 1 6-6H449.5M149.58 487.36h-4.03" stroke="#5e5e5e" stroke-width="2" fill="none"/><path d="M464.77 382.9l-14.27 4.64v-9.27z" stroke="#5e5e5e" stroke-width="2" fill="#5e5e5e"/><path d="M149.55 487.36H449.5M149.58 487.36h-4.03" stroke="#5e5e5e" stroke-width="2" fill="none"/><path d="M464.75 487.36L450.5 492v-9.27z" stroke="#5e5e5e" stroke-width="2" fill="#5e5e5e"/><path d="M149.55 487.36h153.2a6 6 0 0 1 6 6v93a6 6 0 0 0 6 6h135.68M149.58 487.36h-4.03" stroke="#5e5e5e" stroke-width="2" fill="none"/><path d="M465.7 592.35L451.42 597v-9.28z" stroke="#5e5e5e" stroke-width="2" fill="#5e5e5e"/><path d="M386.23 167.45l1.07.26 1 .43.95.57.84.72.7.83.57.94.42 1 .25 1.07.08 1.06v36.7l.07.82.18.76.3.74.4.66.52.6.6.5.67.42.72.3.75.18.82.07h1372.87l1.06.08 1.06.26 1.02.43.94.57.83.72.72.83.57.94.42 1 .26 1.07.08 1.06v244.8h-2V223.12l-.07-.8-.18-.78-.3-.72-.4-.67-.52-.6-.6-.5-.66-.42-.73-.3-.76-.17-.82-.06H397.1l-1.06-.1-1.07-.24-1.02-.42-.93-.57-.84-.7-.7-.85-.6-.93-.4-1.02-.26-1.07-.1-1.05v-36.7l-.05-.8-.18-.78-.3-.72-.42-.67-.5-.6-.6-.5-.68-.42-.72-.3-.76-.17-.82-.06H148.57v-2h236.6z" stroke="#5e5e5e" stroke-width=".05" fill="#5e5e5e"/><path d="M148.6 169.37h-4.03v-2h4.03z" stroke="#5e5e5e" stroke-width=".05" fill="#5e5e5e"/><path d="M1776.03 472.48l-14.46-3.96 14.03-5.3z" fill="#5e5e5e"/><path d="M1777.1 473.8l-18.77-5.13 18.2-6.87zm-12.3-5.43l10.17 2.78-.3-6.5zM386.23 167.45l1.07.26 1 .43.95.57.84.72.7.83.57.94.42 1 .25 1.07.08 1.06v36.03l.07.82.18.76.3.73.4.67.52.6.6.5.67.4.72.3.75.2.82.06h1050.2l1.06.08 1.07.26 1 .42.95.57.83.72.72.83.57.94.42 1.02.25 1.06.08 1.06v83.3l.07.83.18.76.3.72.4.67.52.6.6.5.66.42.73.3.75.18.82.06h15.46v2h-15.54l-1.06-.07-1.07-.26-1.02-.42-.94-.57-.82-.7-.7-.85-.6-.94-.4-1.02-.27-1.07-.07-1.05v-83.3l-.06-.83-.2-.76-.3-.73-.4-.67-.5-.6-.6-.5-.67-.4-.72-.3-.77-.2-.8-.06H397.1l-1.06-.08-1.07-.26-1.02-.42-.93-.57-.84-.72-.7-.83-.6-.94-.4-1.02-.26-1.06-.1-1.06V174.4l-.05-.8-.18-.78-.3-.72-.42-.67-.5-.6-.6-.5-.68-.42-.72-.3-.76-.17-.82-.06H148.57v-2h236.6z" stroke="#5e5e5e" stroke-width=".05" fill="#5e5e5e"/><path d="M148.6 169.37h-4.03v-2h4.03z" stroke="#5e5e5e" stroke-width=".05" fill="#5e5e5e"/><path d="M1490.1 311.7l-14.27 4.65v-9.27z" fill="#5e5e5e"/><path d="M1493.33 311.7l-18.5 6.02V305.7zm-16.5 3.27l10.03-3.26-10.03-3.25zM1641.83 1266.04l-.08 1.06-.26 1.06-.43 1.02-.57.94-.72.83-.83.72-.94.57-1 .42-1.07.26-1.06.08H291.1l-1.06-.08-1.07-.26-1.02-.42-.93-.57-.84-.72-.7-.83-.6-.94-.4-1.02-.26-1.06-.1-1.06v-101.57l-.05-.83-.18-.76-.3-.72-.42-.67-.5-.6-.6-.52-.68-.4-.72-.3-.76-.2-.82-.05H148.56v-2h130.6l1.07.08 1.07.27 1 .42.95.56.84.7.7.85.57.95.42 1 .25 1.08.08 1.06v101.56l.07.82.18.76.3.73.4.67.52.6.6.5.67.4.72.3.75.2.82.06H1634.8l.8-.07.78-.18.72-.3.67-.4.6-.52.5-.6.4-.66.3-.73.2-.76.06-.82V848.83h2zm0-446.54h-2V547.36h2z" stroke="#5e5e5e" stroke-width=".05" fill="#5e5e5e"/><path d="M148.58 1159.43h-4.02v-2h4.02z" stroke="#5e5e5e" stroke-width=".05" fill="#5e5e5e"/><path d="M1645.47 546.36h-9.27l4.63-14.26z" fill="#5e5e5e"/><path d="M1646.84 547.36h-12.02l6-18.5zm-9.27-2h6.52l-3.27-10.03z" stroke="#5e5e5e" stroke-width=".05" fill="#5e5e5e"/><use xlink:href="#T" transform="matrix(1,0,0,1,1535.0419011649415,819.5021040089163) translate(0.0049999999999954525 19.555555555555557)"/><use xlink:href="#U" transform="matrix(1,0,0,1,1535.0419011649415,819.5021040089163) translate(77.34450617283952 19.555555555555557)"/><use xlink:href="#V" transform="matrix(1,0,0,1,1535.0419011649415,819.5021040089163) translate(104.50500000000001 19.555555555555557)"/><path d="M1474.83 312.7h-165.8l-.82.08-.75.18-.73.3-.67.4-.6.52-.5.6-.4.66-.3.73-.2.76-.06.82v457.52l-.1 1.06-.25 1.06-.42 1-.57.95-.72.83-.83.72-.93.57-1.02.42-1.06.25-1.07.08H263.17l-.82.06-.76.18-.74.3-.66.4-.6.52-.5.6-.42.66-.3.73-.18.75-.07.82v37.95l-.08 1.06-.26 1.07-.43 1-.57.95-.7.84-.85.7-.94.58-1 .43-1.07.25-1.06.08H140.33v-2H251.1l.82-.06.76-.18.72-.3.67-.4.6-.52.5-.6.42-.67.3-.72.17-.76.06-.83V787.2l.1-1.07.24-1.06.42-1.02.57-.94.7-.82.85-.7.94-.6 1-.4 1.08-.27 1.06-.07h1033.85l.82-.06.76-.2.73-.3.67-.4.6-.5.5-.6.4-.67.3-.73.2-.76.06-.8V317.66l.07-1.05.26-1.07.42-1.02.57-.93.72-.84.83-.7.94-.6 1.03-.4 1.06-.26 1.05-.1h165.88z" stroke="#5e5e5e" stroke-width=".05" fill="#5e5e5e"/><path d="M140.36 832.18h-4.03v-2h4.03z" stroke="#5e5e5e" stroke-width=".05" fill="#5e5e5e"/><path d="M1490.1 311.7l-14.27 4.65v-9.27z" fill="#5e5e5e"/><path d="M1493.33 311.7l-18.5 6.02V305.7zm-16.5 3.27l10.03-3.26-10.03-3.25z" stroke="#5e5e5e" stroke-width=".05" fill="#5e5e5e"/><use xlink:href="#W" transform="matrix(1,0,0,1,1119.4555610309508,785.2303017272054) translate(0.0049999999999954525 19.555555555555557)"/><use xlink:href="#X" transform="matrix(1,0,0,1,1119.4555610309508,785.2303017272054) translate(77.34450617283949 19.555555555555557)"/><use xlink:href="#Y" transform="matrix(1,0,0,1,1119.4555610309508,785.2303017272054) translate(104.50499999999998 19.555555555555557)"/><path d="M632 382.37h2m8 0h4m8 0h4.02m8 0h4m8.02 0h4m8 0h4m8.02 0h4m8 0h4.02m8 0h4m8 0h4.02m8 0h4m8.02 0h4m8 0h4m8.02 0h4m8 0h4.02m8 0h4m8.02 0h4m8 0h4m8.02 0h4m8 0h4m8.02 0h4m8 0h4.02m8 0h4m8.02 0h4m8 0h4m8.02 0h4m8 0h4.02m8 0h4m8.02 0h4m8 0h4m8.02 0h4m8 0h4m8.02 0h4m8 0h4.02m8 0h2l.95.07.6.15m4.24 4.22l.14.6.1.95v2.03m0 8.13v4.06m0 8.12v4.06m0 8.13v4.07m0 8.13v4.06m0 8.13v4.05m0 8.13v4.06m0 8.13v4.06m0 8.13v4.06m0 8.12v4.07m0 8.13v4.07m0 8.12v4.07m0 8.1v4.08m0 8.12v4.07m0 8.12v4.05m0 8.13v4.07m0 8.12v4.06m0 8.13v4.06m0 8.13v4.06m0 8.14V622m0 8.13v4.06m0 8.12v2.03" stroke="#5e5e5e" stroke-width="2" fill="none"/><path d="M632.02 383.37h-1.08l.05-.98-.03-1.03h1.05z" stroke="#5e5e5e" stroke-width=".05" fill="#5e5e5e"/><path d="M1046.4 659.62l-4.65-14.27h9.27z" stroke="#5e5e5e" stroke-width="2" fill="#5e5e5e"/><g><use xlink:href="#Z" transform="matrix(1,0,0,1,735.4795372800625,357.03672052670333) translate(0.005000000000002558 14.222222222222223)"/><use xlink:href="#aa" transform="matrix(1,0,0,1,735.4795372800625,357.03672052670333) translate(25.68401234567902 14.222222222222223)"/><use xlink:href="#ab" transform="matrix(1,0,0,1,735.4795372800625,357.03672052670333) translate(102.57290123456792 14.222222222222223)"/></g><path d="M632 487.36h2m8 0h4m8 0h4.02m8 0h4m8.02 0h4m8 0h4m8.02 0h4m8 0h4.02m8 0h4m8 0h4.02m8 0h4m8.02 0h4m8 0h4m8.02 0h4m8 0h4.02m8 0h4m8.02 0h4m8 0h4m8.02 0h4m8 0h4m8.02 0h4m8 0h4.02m8 0h4m8.02 0h4m8 0h4m8.02 0h4m8 0h4.02m8 0h4m8.02 0h4m8 0h4m8.02 0h4m8 0h4m8.02 0h4m8 0h4.02m8 0h2l.95.07.6.15m4.24 4.23l.14.62.1.94v1.94m0 7.74v3.87m0 7.75v3.88m0 7.74v3.87m0 7.74v3.88m0 7.74v3.87m0 7.74V565m0 7.75v3.87m0 7.74v3.87m0 7.76v3.87m0 7.74v3.87m0 7.74v3.88m0 7.74v3.87m0 7.75v1.93" stroke="#5e5e5e" stroke-width="2" fill="none"/><path d="M632.02 488.36h-1.1l.07-.98-.04-1.02h1.06z" stroke="#5e5e5e" stroke-width=".05" fill="#5e5e5e"/><path d="M1046.4 659.62l-4.65-14.27h9.27z" stroke="#5e5e5e" stroke-width="2" fill="#5e5e5e"/><g><use xlink:href="#Z" transform="matrix(1,0,0,1,735.4795372800625,462.02782107957694) translate(0.005000000000002558 14.222222222222223)"/><use xlink:href="#aa" transform="matrix(1,0,0,1,735.4795372800625,462.02782107957694) translate(25.68401234567902 14.222222222222223)"/><use xlink:href="#ab" transform="matrix(1,0,0,1,735.4795372800625,462.02782107957694) translate(102.57290123456792 14.222222222222223)"/></g><path d="M632.93 592.35h2m8 0h3.98m8 0h4m8 0h3.98m8 0h4m7.98 0h4m7.98 0h4m7.98 0h4m8 0h3.98m8 0h4m7.98 0h4m7.98 0h4m7.98 0h4m8 0h3.98m8 0h4m7.97 0h4m7.98 0h4m7.98 0h4m8 0h3.98m8 0h4m7.97 0h4m8 0h4m7.98 0h4m8 0h3.98m8 0h4m7.97 0h4m8 0h3.98m8 0h4m8 0h3.98m8 0h4m7.97 0h4m8 0h3.98m8 0h4m7.98 0h4m8 0h2l.93.08.6.14m4.24 4.23l.14.6.1.95v1.92m0 7.66v3.84m0 7.66v3.84m0 7.66v3.84m0 7.66v1.92" stroke="#5e5e5e" stroke-width="2" fill="none"/><path d="M632.96 593.35h-1.1l.07-.98-.03-1.02h1.06z" stroke="#5e5e5e" stroke-width=".05" fill="#5e5e5e"/><path d="M1046.4 659.62l-4.65-14.27h9.27z" stroke="#5e5e5e" stroke-width="2" fill="#5e5e5e"/><g><use xlink:href="#Z" transform="matrix(1,0,0,1,737.4795372800625,567.0189216324505) translate(0.005000000000002558 14.222222222222223)"/><use xlink:href="#aa" transform="matrix(1,0,0,1,737.4795372800625,567.0189216324505) translate(25.68401234567902 14.222222222222223)"/><use xlink:href="#ab" transform="matrix(1,0,0,1,737.4795372800625,567.0189216324505) translate(102.57290123456792 14.222222222222223)"/></g><path d="M791 886.53h-2v-2h2zm12.08 0h-4.03v-2h4.03zm12.07 0h-4.02v-2h4.02zm12.08 0h-4.03v-2h4.03zm12.07 0h-4.02v-2h4.02zm12.08 0h-4.03v-2h4.03zm11.84-.25l-.7.17-1.04.08h-2.05v-2h1.97l.82-.06.53-.13zm5.22-6.7l-.08 1.05-.17.68-1.95-.45.13-.54.06-.8v-1.98h2zm0-10.12h-2v-4.03h2zm0-27.73h-2v-.47h2zm0-8.52h-2v-4.02h2zm0-12.08h-2v-4.02h2zm0-12.08h-2V805h2zm0-12.08h-2v-4.03h2zm0-12.1h-2v-4.02h2zm0-12.07h-2v-4.04h2zm0-12.1h-2v-4.03h2zm0-12.08h-2v-4.03h2zm0-12.1h-2v-4h2zm0-12.07h-2v-4.03h2zm.2-15.4l-.14.52-.06.82v1.97h-2v-2.06l.08-1.04.17-.7zm6.63-3.7h-1.8l-.8.07-.55.13-.46-1.95.68-.17 1.06-.08h1.87zm11 0h-3.67v-2h3.66zm10.98 0h-3.66v-2h3.65zm11 0h-3.67v-2h3.66zm10.98 0h-3.67v-2h3.67zm9.15 0h-1.83v-2h1.84z" stroke="#5e5e5e" stroke-width=".05" fill="#5e5e5e"/><path d="M789.02 886.53h-1.06l.03-.98v-.44l-.03-.57h1.05z" fill="#5e5e5e"/><path d="M789.04 886.56h-1.1l.03-1v-.44l-.02-.6h1.1zm-1.04-2l.02.55v.45l-.03.96h1v-1.94z" stroke="#5e5e5e" stroke-width=".05" fill="#5e5e5e"/><path d="M943.65 704.35L929.4 709v-9.28z" fill="#5e5e5e"/><path d="M946.9 704.35l-18.5 6v-12zm-16.5 3.26l10-3.25-10-3.26z" stroke="#5e5e5e" stroke-width=".05" fill="#5e5e5e"/><g><use xlink:href="#Z" transform="matrix(1,0,0,1,805.7848097692697,841.7333333333335) translate(0.005000000000002558 14.222222222222223)"/><use xlink:href="#aa" transform="matrix(1,0,0,1,805.7848097692697,841.7333333333335) translate(25.68401234567902 14.222222222222223)"/><use xlink:href="#ab" transform="matrix(1,0,0,1,805.7848097692697,841.7333333333335) translate(102.57290123456792 14.222222222222223)"/></g><path d="M597 1067h-2v-2h2zm12.04 0h-4v-2h4zm12.04 0h-4.02v-2h4.02zm12.03 0h-4v-2h4zm12.05 0h-4v-2h4zm12.04 0h-4.02v-2h4zm12.03 0h-4.02v-2h4.03zm12.03 0h-4v-2h4zm12.04 0h-4v-2h4zm12.04 0h-4v-2h4zm12.04 0h-4.02v-2h4.02zm12.03 0h-4v-2h4zm12.05 0h-4v-2h4zm12.04 0h-4.02v-2h4zm12.03 0h-4v-2h4zm12.04 0h-4.02v-2h4.02zm12.03 0h-4v-2h4zm12.04 0h-4v-2h4zm12.04 0h-4v-2h4zm12.04 0h-4.02v-2h4.02zm12.03 0h-4v-2h4zm12.04 0h-4.02v-2h4zm12.03 0h-4v-2h4zm12.04 0h-4.02v-2h4.02zm12.03 0h-4v-2h4zm12.04 0h-4v-2h4zm12.04 0h-4v-2h4zm12.04 0h-4v-2h4zm12.03 0h-4v-2h4zm12.04 0h-4.02v-2h4zm12.03 0h-4v-2h4zm12.04 0h-4v-2h4zm12.04 0h-4v-2h4zm12.04 0h-4v-2h4zm12.04 0h-4v-2h4zm12.04 0h-4v-2h4zm12.04 0h-4.02v-2h4.02zm11.8-.25l-.68.17-1.05.08h-2.05v-2h1.97l.82-.07.53-.12zm5.23-6.7l-.1 1.05-.16.68-1.95-.46.12-.54.07-.82v-1.93h2zm0-9.9h-2v-3.95h2zm0-11.83h-2v-3.94h2zm0-11.83h-2v-3.95h2zm0-11.83h-2v-3.94h2zm0-11.83h-2v-3.94h2zm0-11.82h-2v-3.95h2zm0-11.83h-2v-3.95h2zm0-11.84h-2v-3.94h2zm0-11.82h-2v-3.94h2zm0-11.83h-2v-3.93h2zm0-11.8h-2v-3.95h2zm0-11.84h-2v-3.94h2zm0-11.82h-2v-3.95h2zm0-11.83h-2v-3.93h2zm0-11.82h-2v-3.94h2zm0-11.82h-2v-3.94h2zm0-11.83h-2V857h2zm0-11.82h-2v-3.94h2zm0-11.82h-2v-3.94h2zm0-11.83h-2v-3.94h2zm0-11.82h-2v-3.94h2zm0-11.83h-2v-3.94h2zm0-11.82h-2v-3.95h2zm0-11.83h-2v-3.94h2zm0-11.82h-2v-1.98h2z" stroke="#5e5e5e" stroke-width=".05" fill="#5e5e5e"/><path d="M595.02 1067h-1.08l.05-1-.06-1h1.08z" fill="#5e5e5e"/><path d="M595.04 1067.03h-1.13l.07-1.03-.06-1.03h1.14zm-1.07-2l.05.97-.06.97H595v-1.94z" stroke="#5e5e5e" stroke-width=".05" fill="#5e5e5e"/><path d="M1051.02 763.35h-9.27l4.64-14.26z" fill="#5e5e5e"/><path d="M1052.4 764.35h-12.02l6-18.5zm-9.27-2h6.52l-3.26-10.03z" stroke="#5e5e5e" stroke-width=".05" fill="#5e5e5e"/><g><use xlink:href="#Z" transform="matrix(1,0,0,1,731.4795372800625,1040.6666666666667) translate(0.005000000000002558 14.222222222222223)"/><use xlink:href="#aa" transform="matrix(1,0,0,1,731.4795372800625,1040.6666666666667) translate(25.68401234567902 14.222222222222223)"/><use xlink:href="#ac" transform="matrix(1,0,0,1,731.4795372800625,1040.6666666666667) translate(102.57290123456792 14.222222222222223)"/></g><path d="M597 1192.73h-2v-2h2zm12.04 0h-4.02v-2h4.02zm12.04 0h-4.02v-2h4.02zm12.03 0h-4v-2h4zm12.05 0h-4v-2h4zm12.04 0h-4.03v-2h4.02zm12.02 0h-4v-2h4zm12.04 0h-4v-2h4zm12.04 0h-4v-2h4zm12.04 0h-4v-2h4zm12.04 0h-4.02v-2h4.02zm12.03 0h-4v-2h4zm12.05 0h-4v-2h4zm12.04 0h-4.02v-2h4zm12.03 0h-4.02v-2h4.03zm12.04 0h-4.02v-2h4.02zm12.03 0h-4v-2h4zm12.04 0h-4v-2h4zm12.04 0h-4v-2h4zm12.04 0h-4.02v-2h4zm12.03 0h-4v-2h4zm12.04 0h-4.02v-2h4zm12.03 0h-4v-2h4zm12.04 0h-4.02v-2h4.02zm12.03 0h-4v-2h4zm12.04 0h-4v-2h4zm12.04 0h-4v-2h4zm12.04 0H918v-2h4.02zm12.03 0h-4v-2h4zm12.04 0h-4.02v-2h4zm12.03 0h-4v-2h4zm12.04 0h-4v-2h4zm12.04 0h-4v-2h4zm12.04 0h-4v-2h4zm12.04 0h-4v-2h4zm12.04 0h-4v-2h4zm12.04 0h-4.02v-2h4.02zm11.8-.25l-.68.17-1.05.08h-2.05v-2h1.97l.82-.06.53-.13zm5.23-6.7l-.1 1.05-.16.7-1.95-.48.12-.53.07-.83v-1.97h2zm0-10.08h-2v-4h2zm0-12.04h-2v-4h2zm0-12.04h-2v-4h2zm0-12.04h-2v-4h2zm0-12.04h-2v-4h2zm0-12.04h-2v-4h2zm0-12.04h-2v-4h2zm0-12.04h-2v-4h2zm0-12.04h-2v-4h2zm0-12.03h-2v-4.02h2zm0-12.04h-2v-4h2zm0-12.03h-2v-4.02h2zm0-12.04h-2v-4.02h2zm0-12.04h-2v-4.03h2zm0-12.05h-2v-4h2zm0-12.04h-2v-4h2zm0-12.03h-2v-4h2zm0-12.04h-2v-4h2zm0-12.04h-2v-4.02h2zm0-12.05h-2v-4h2zm0-12.04h-2v-4h2zm0-12.03h-2v-4h2zm0-12.04h-2v-4h2zm0-12.04h-2v-4.02h2zm0-12.04h-2v-4.02h2zm0-12.04h-2v-4.02h2zm0-12.04h-2v-4.02h2zm0-12.04h-2v-4.02h2zm0-12.04h-2v-4.02h2zm0-12.04h-2v-4h2zm0-12.04h-2v-4h2zm0-12.04h-2v-4h2zm0-12.04h-2v-4h2zm0-12.04h-2v-4h2zm0-12.04h-2v-2h2z" stroke="#5e5e5e" stroke-width=".05" fill="#5e5e5e"/><path d="M595.02 1192.73h-1.07l.04-1-.05-1h1.07z" fill="#5e5e5e"/><path d="M595.04 1192.76h-1.12l.05-1.02-.04-1.03h1.1zm-1.06-2l.04.98-.04.97h1v-1.94z" stroke="#5e5e5e" stroke-width=".05" fill="#5e5e5e"/><path d="M1051.02 763.35h-9.27l4.64-14.26z" fill="#5e5e5e"/><path d="M1052.4 764.35h-12.02l6-18.5zm-9.27-2h6.52l-3.26-10.03z" stroke="#5e5e5e" stroke-width=".05" fill="#5e5e5e"/><g><use xlink:href="#Z" transform="matrix(1,0,0,1,727.4795372800625,1166.399855078696) translate(0.005000000000002558 14.222222222222223)"/><use xlink:href="#aa" transform="matrix(1,0,0,1,727.4795372800625,1166.399855078696) translate(25.68401234567902 14.222222222222223)"/><use xlink:href="#ab" transform="matrix(1,0,0,1,727.4795372800625,1166.399855078696) translate(102.57290123456792 14.222222222222223)"/></g><path d="M1047.4 644.35h-2v-2.02h2zm0-10.12h-2v-4.04h2zm0-12.13h-2v-4.05h2zm0-12.14h-2v-4.05h2zm0-12.14h-2v-4.05h2zm0-12.14h-2v-4.05h2zm0-12.14h-2v-4.05h2zm0-12.14h-2v-4.05h2zm0-12.14h-2v-4.05h2zm0-12.14h-2v-4.05h2zm0-12.14h-2v-4.05h2zm0-12.14h-2v-4.05h2zm0-12.14h-2v-4.05h2zm0-12.14h-2v-4.04h2zm.18-15.48l-.13.54-.06.82v1.98h-2v-2.06l.07-1.06.16-.68zm6.82-3.68h-1.97l-.82.06-.53.13-.46-1.95.7-.17 1.05-.08h2.05zm277.5-.25l-.7.17-1.05.08h-2.05v-2h1.97l.82-.06.52-.13zm-11.85.25h-4.03v-2h4.03zm-12.08 0h-4.02v-2h4.02zm-12.07 0h-4.03v-2h4.03zm-12.08 0h-4.02v-2h4.02zm-12.07 0h-4.03v-2h4.03zm-12.08 0h-4.02v-2h4.02zm-12.07 0h-4.03v-2h4.03zm-12.08 0h-4.02v-2h4.02zm-12.07 0h-4.03v-2h4.03zm-12.08 0h-4.02v-2h4.02zm-12.07 0h-4.03v-2h4.03zm-12.08 0h-4.02v-2h4.02zm-12.07 0h-4.03v-2h4.03zm-12.08 0h-4.02v-2h4.02zm-12.07 0h-4.03v-2h4.03zm-12.08 0h-4.02v-2h4.02zm-12.07 0h-4.03v-2h4.03zm-12.08 0h-4.02v-2h4.02zm-12.07 0h-4.03v-2h4.03zm-12.08 0h-4.02v-2h4.03zm-12.07 0h-4.02v-2h4.02zm-12.08 0h-4.02v-2h4.02zm270.64-6.96l-.07 1.06-.17.68-1.94-.47.13-.52.06-.82v-1.96h2zm0-10.04h-2v-4h2zm0-12h-2v-4h2zm0-12h-2v-4h2zm0-12h-2v-4h2zm.2-15.3l-.13.52-.06.82v1.96h-2v-2.04l.1-1.06.16-.68zm6.82-3.7h-1.97l-.82.06-.54.13-.47-1.95.68-.17 1.07-.08h2.05zm277.5-.25l-.7.17-1.05.08h-2.05v-2h1.97l.8-.06.55-.13zm-11.85.25h-4.03v-2h4.03zm-12.08 0h-4.03v-2h4.02zm-12.08 0h-4.02v-2h4.02zm-12.07 0h-4.03v-2h4.03zm-12.08 0h-4.03v-2h4.03zm-12.08 0h-4.03v-2h4.03zm-12.08 0h-4.02v-2h4.02zm-132.82 0h-4.03v-2h4.03zm-12.08 0h-4.02v-2h4.02zm-12.07 0h-4.03v-2h4.03zm-12.08 0h-4.02v-2h4.02zm-12.07 0h-4.03v-2h4.03zm270.63-6.96l-.08 1.06-.17.68-1.94-.47.13-.52.06-.82v-2.88h2zm0-14.62h-2v-2.92h2z" stroke="#5e5e5e" stroke-width=".05" fill="#5e5e5e"/><path d="M1626.83 372.93h-2v-1.03h2z" fill="#5e5e5e"/><path d="M1626.86 372.95h-2.05v-1.07h2.06zm-2-1.02v.97h1.95v-.97z" stroke="#5e5e5e" stroke-width=".05" fill="#5e5e5e"/><path d="M1046.4 659.62l-4.65-14.27h9.27z" fill="#5e5e5e"/><path d="M1046.4 662.85l-6.02-18.5h12.02zm-3.27-16.5l3.26 10.03 3.25-10.03z" stroke="#5e5e5e" stroke-width=".05" fill="#5e5e5e"/><g><use xlink:href="#Z" transform="matrix(1,0,0,1,1409.4795372800625,385.7333333333334) translate(0.005000000000002558 14.222222222222223)"/><use xlink:href="#aa" transform="matrix(1,0,0,1,1409.4795372800625,385.7333333333334) translate(25.68401234567902 14.222222222222223)"/><use xlink:href="#ab" transform="matrix(1,0,0,1,1409.4795372800625,385.7333333333334) translate(102.57290123456792 14.222222222222223)"/></g><path d="M1522.33 468.67h-2m-8.04 0h-4.03m-8.03 0h-4.02m-8.03 0h-4.03m-8.03 0h-4.02m-8.03 0h-4.03m-8.03 0h-4.02m-8.03 0h-4.03m-8.03 0h-4.02m-8.03 0h-4.03m-8.03 0h-4m-8.05 0h-4.02m-8.04 0h-4.02m-8.03 0h-4.03m-8.03 0h-4.02m-8.03 0h-4.02m-8.04 0h-4m-8.05 0h-4.02m-8.04 0h-4m-8.05 0h-4.02m-8.04 0h-4m-8.05 0h-4.02m-8.04 0h-4m-8.05 0h-4.02m-8.04 0h-4m-8.05 0h-4.02m-8.04 0h-4m-8.05 0h-4.02m-8.04 0h-4m-8.05 0h-4.02m-8.04 0h-4m-8.04 0h-4.02m-8.04 0h-4m-8.05 0h-4.02m-8.04 0h-4m-8.05 0h-4.02m-8.03 0h-4.02m-8.04 0h-4.02m-8.03 0h-4.02m-8.03 0h-2l-.95.08-.6.14m-4.24 4.23l-.14.6-.07.94v2.02m0 8.07v4.04m0 8.1v4.03m0 8.08v4.05m0 8.08v4.04m0 8.08v4.04m0 8.07v4.04m0 8.1v4.03m0 8.08v4.05m0 8.08v4.04m0 8.08v4.04m0 8.07V610m0 8.1v4.03m0 8.08v4.05m0 8.08v2.02" stroke="#5e5e5e" stroke-width="2" fill="none"/><path d="M1523.33 468.66l.02 1h-1.04v-2h1.07z" stroke="#5e5e5e" stroke-width=".05" fill="#5e5e5e"/><path d="M1046.4 659.62l-4.65-14.27h9.27z" stroke="#5e5e5e" stroke-width="2" fill="#5e5e5e"/><g><use xlink:href="#Z" transform="matrix(1,0,0,1,1391.4795372800625,472.67393614594835) translate(0.005000000000002558 14.222222222222223)"/><use xlink:href="#aa" transform="matrix(1,0,0,1,1391.4795372800625,472.67393614594835) translate(25.68401234567902 14.222222222222223)"/><use xlink:href="#ab" transform="matrix(1,0,0,1,1391.4795372800625,472.67393614594835) translate(102.57290123456792 14.222222222222223)"/></g><path d="M140.33 831.18h72.8a6 6 0 0 1 6 6v42.35a6 6 0 0 0 6 6H358.5M140.36 831.18h-4.03" stroke="#5e5e5e" stroke-width="2" fill="none"/><path d="M373.76 885.53l-14.27 4.64v-9.27z" stroke="#5e5e5e" stroke-width="2" fill="#5e5e5e"/><defs><path fill="#333" d="M232-93c-1 65-40 97-104 97C67 4 28-28 28-90v-158h33c8 89-33 224 67 224 102 0 64-133 71-224h33v155" id="ad"/><path fill="#333" d="M59-47c-2 24 18 29 38 22v24C64 9 27 4 27-40v-127H5v-23h24l9-43h21v43h35v23H59v120" id="ae"/><path fill="#333" d="M24-231v-30h32v30H24zM24 0v-190h32V0H24" id="af"/><path fill="#333" d="M24 0v-261h32V0H24" id="ag"/><path fill="#333" d="M135-143c-3-34-86-38-87 0 15 53 115 12 119 90S17 21 10-45l28-5c4 36 97 45 98 0-10-56-113-15-118-90-4-57 82-63 122-42 12 7 21 19 24 35" id="ah"/><path fill="#333" d="M141-36C126-15 110 5 73 4 37 3 15-17 15-53c-1-64 63-63 125-63 3-35-9-54-41-54-24 1-41 7-42 31l-33-3c5-37 33-52 76-52 45 0 72 20 72 64v82c-1 20 7 32 28 27v20c-31 9-61-2-59-35zM48-53c0 20 12 33 32 33 41-3 63-29 60-74-43 2-92-5-92 41" id="ai"/><path fill="#333" d="M100-194c63 0 86 42 84 106H49c0 40 14 67 53 68 26 1 43-12 49-29l28 8c-11 28-37 45-77 45C44 4 14-33 15-96c1-61 26-98 85-98zm52 81c6-60-76-77-97-28-3 7-6 17-6 28h103" id="aj"/><path fill="#333" d="M84 4C-5 8 30-112 23-190h32v120c0 31 7 50 39 49 72-2 45-101 50-169h31l1 190h-30c-1-10 1-25-2-33-11 22-28 36-60 37" id="ak"/><path fill="#333" d="M114-163C36-179 61-72 57 0H25l-1-190h30c1 12-1 29 2 39 6-27 23-49 58-41v29" id="al"/><g id="a"><use transform="matrix(0.06790123456790124,0,0,0.06790123456790124,0,0)" xlink:href="#ad"/><use transform="matrix(0.06790123456790124,0,0,0.06790123456790124,17.58641975308642,0)" xlink:href="#ae"/><use transform="matrix(0.06790123456790124,0,0,0.06790123456790124,24.376543209876544,0)" xlink:href="#af"/><use transform="matrix(0.06790123456790124,0,0,0.06790123456790124,29.740740740740744,0)" xlink:href="#ag"/><use transform="matrix(0.06790123456790124,0,0,0.06790123456790124,35.104938271604944,0)" xlink:href="#af"/><use transform="matrix(0.06790123456790124,0,0,0.06790123456790124,40.46913580246914,0)" xlink:href="#ah"/><use transform="matrix(0.06790123456790124,0,0,0.06790123456790124,52.69135802469136,0)" xlink:href="#ai"/><use transform="matrix(0.06790123456790124,0,0,0.06790123456790124,66.27160493827161,0)" xlink:href="#ae"/><use transform="matrix(0.06790123456790124,0,0,0.06790123456790124,73.06172839506173,0)" xlink:href="#aj"/><use transform="matrix(0.06790123456790124,0,0,0.06790123456790124,86.64197530864199,0)" xlink:href="#ak"/><use transform="matrix(0.06790123456790124,0,0,0.06790123456790124,100.22222222222224,0)" xlink:href="#al"/></g><path fill="#333" d="M205 0l-28-72H64L36 0H1l101-248h38L239 0h-34zm-38-99l-47-123c-12 45-31 82-46 123h93" id="am"/><path fill="#333" d="M85-194c31 0 48 13 60 33l-1-100h32l1 261h-30c-2-10 0-23-3-31C134-8 116 4 85 4 32 4 16-35 15-94c0-66 23-100 70-100zm9 24c-40 0-46 34-46 75 0 40 6 74 45 74 42 0 51-32 51-76 0-42-9-74-50-73" id="an"/><path fill="#333" d="M210-169c-67 3-38 105-44 169h-31v-121c0-29-5-50-35-48C34-165 62-65 56 0H25l-1-190h30c1 10-1 24 2 32 10-44 99-50 107 0 11-21 27-35 58-36 85-2 47 119 55 194h-31v-121c0-29-5-49-35-48" id="ao"/><path fill="#333" d="M117-194c89-4 53 116 60 194h-32v-121c0-31-8-49-39-48C34-167 62-67 57 0H25l-1-190h30c1 10-1 24 2 32 11-22 29-35 61-36" id="ap"/><g id="b"><use transform="matrix(0.06790123456790124,0,0,0.06790123456790124,0,0)" xlink:href="#am"/><use transform="matrix(0.06790123456790124,0,0,0.06790123456790124,16.296296296296298,0)" xlink:href="#an"/><use transform="matrix(0.06790123456790124,0,0,0.06790123456790124,29.876543209876544,0)" xlink:href="#ao"/><use transform="matrix(0.06790123456790124,0,0,0.06790123456790124,50.17901234567901,0)" xlink:href="#af"/><use transform="matrix(0.06790123456790124,0,0,0.06790123456790124,55.54320987654321,0)" xlink:href="#ap"/><use transform="matrix(0.06790123456790124,0,0,0.06790123456790124,69.12345679012346,0)" xlink:href="#af"/><use transform="matrix(0.06790123456790124,0,0,0.06790123456790124,74.48765432098766,0)" xlink:href="#ah"/><use transform="matrix(0.06790123456790124,0,0,0.06790123456790124,86.70987654320989,0)" xlink:href="#ae"/><use transform="matrix(0.06790123456790124,0,0,0.06790123456790124,93.50000000000001,0)" xlink:href="#al"/><use transform="matrix(0.06790123456790124,0,0,0.06790123456790124,101.58024691358027,0)" xlink:href="#ai"/><use transform="matrix(0.06790123456790124,0,0,0.06790123456790124,115.16049382716052,0)" xlink:href="#ae"/><use transform="matrix(0.06790123456790124,0,0,0.06790123456790124,121.95061728395065,0)" xlink:href="#aj"/><use transform="matrix(0.06790123456790124,0,0,0.06790123456790124,135.5308641975309,0)" xlink:href="#ak"/><use transform="matrix(0.06790123456790124,0,0,0.06790123456790124,149.11111111111114,0)" xlink:href="#al"/></g><path fill="#333" d="M233-177c-1 41-23 64-60 70L243 0h-38l-65-103H63V0H30v-248c88 3 205-21 203 71zM63-129c60-2 137 13 137-47 0-61-80-42-137-45v92" id="aq"/><path fill="#333" d="M96-169c-40 0-48 33-48 73s9 75 48 75c24 0 41-14 43-38l32 2c-6 37-31 61-74 61-59 0-76-41-82-99-10-93 101-131 147-64 4 7 5 14 7 22l-32 3c-4-21-16-35-41-35" id="ar"/><g id="c"><use transform="matrix(0.06790123456790124,0,0,0.06790123456790124,0,0)" xlink:href="#aq"/><use transform="matrix(0.06790123456790124,0,0,0.06790123456790124,17.58641975308642,0)" xlink:href="#aj"/><use transform="matrix(0.06790123456790124,0,0,0.06790123456790124,31.16666666666667,0)" xlink:href="#ar"/><use transform="matrix(0.06790123456790124,0,0,0.06790123456790124,43.38888888888889,0)" xlink:href="#al"/><use transform="matrix(0.06790123456790124,0,0,0.06790123456790124,51.46913580246915,0)" xlink:href="#ak"/><use transform="matrix(0.06790123456790124,0,0,0.06790123456790124,65.0493827160494,0)" xlink:href="#ae"/><use transform="matrix(0.06790123456790124,0,0,0.06790123456790124,71.83950617283952,0)" xlink:href="#aj"/><use transform="matrix(0.06790123456790124,0,0,0.06790123456790124,85.41975308641977,0)" xlink:href="#ak"/><use transform="matrix(0.06790123456790124,0,0,0.06790123456790124,99.00000000000003,0)" xlink:href="#al"/></g><path fill="#333" d="M212-179c-10-28-35-45-73-45-59 0-87 40-87 99 0 60 29 101 89 101 43 0 62-24 78-52l27 14C228-24 195 4 139 4 59 4 22-46 18-125c-6-104 99-153 187-111 19 9 31 26 39 46" id="as"/><g id="d"><use transform="matrix(0.06790123456790124,0,0,0.06790123456790124,0,0)" xlink:href="#as"/><use transform="matrix(0.06790123456790124,0,0,0.06790123456790124,17.58641975308642,0)" xlink:href="#ai"/><use transform="matrix(0.06790123456790124,0,0,0.06790123456790124,31.16666666666667,0)" xlink:href="#ap"/><use transform="matrix(0.06790123456790124,0,0,0.06790123456790124,44.74691358024692,0)" xlink:href="#an"/><use transform="matrix(0.06790123456790124,0,0,0.06790123456790124,58.32716049382716,0)" xlink:href="#af"/><use transform="matrix(0.06790123456790124,0,0,0.06790123456790124,63.69135802469136,0)" xlink:href="#an"/><use transform="matrix(0.06790123456790124,0,0,0.06790123456790124,77.27160493827161,0)" xlink:href="#ai"/><use transform="matrix(0.06790123456790124,0,0,0.06790123456790124,90.85185185185186,0)" xlink:href="#ae"/></g><path fill="#333" d="M115-194c55 1 70 41 70 98S169 2 115 4C84 4 66-9 55-30l1 105H24l-1-265h31l2 30c10-21 28-34 59-34zm-8 174c40 0 45-34 45-75s-6-73-45-74c-42 0-51 32-51 76 0 43 10 73 51 73" id="at"/><path fill="#333" d="M100-194c62-1 85 37 85 99 1 63-27 99-86 99S16-35 15-95c0-66 28-99 85-99zM99-20c44 1 53-31 53-75 0-43-8-75-51-75s-53 32-53 75 10 74 51 75" id="au"/><g id="e"><use transform="matrix(0.08641975308641975,0,0,0.08641975308641975,0,0)" xlink:href="#am"/><use transform="matrix(0.08641975308641975,0,0,0.08641975308641975,20.74074074074074,0)" xlink:href="#at"/><use transform="matrix(0.08641975308641975,0,0,0.08641975308641975,38.02469135802469,0)" xlink:href="#at"/><use transform="matrix(0.08641975308641975,0,0,0.08641975308641975,55.30864197530864,0)" xlink:href="#ag"/><use transform="matrix(0.08641975308641975,0,0,0.08641975308641975,62.1358024691358,0)" xlink:href="#af"/><use transform="matrix(0.08641975308641975,0,0,0.08641975308641975,68.96296296296296,0)" xlink:href="#ar"/><use transform="matrix(0.08641975308641975,0,0,0.08641975308641975,84.51851851851852,0)" xlink:href="#ai"/><use transform="matrix(0.08641975308641975,0,0,0.08641975308641975,101.80246913580247,0)" xlink:href="#ae"/><use transform="matrix(0.08641975308641975,0,0,0.08641975308641975,110.44444444444444,0)" xlink:href="#af"/><use transform="matrix(0.08641975308641975,0,0,0.08641975308641975,117.2716049382716,0)" xlink:href="#au"/><use transform="matrix(0.08641975308641975,0,0,0.08641975308641975,134.55555555555554,0)" xlink:href="#ap"/></g><path fill="#333" d="M266 0h-40l-56-210L115 0H75L2-248h35L96-30l15-64 43-154h32l59 218 59-218h35" id="av"/><path fill="#333" d="M115-194c53 0 69 39 70 98 0 66-23 100-70 100C84 3 66-7 56-30L54 0H23l1-261h32v101c10-23 28-34 59-34zm-8 174c40 0 45-34 45-75 0-40-5-75-45-74-42 0-51 32-51 76 0 43 10 73 51 73" id="aw"/><g id="f"><use transform="matrix(0.08641975308641975,0,0,0.08641975308641975,0,0)" xlink:href="#av"/><use transform="matrix(0.08641975308641975,0,0,0.08641975308641975,28.691358024691358,0)" xlink:href="#aj"/><use transform="matrix(0.08641975308641975,0,0,0.08641975308641975,45.9753086419753,0)" xlink:href="#aw"/></g><g id="g"><use transform="matrix(0.08641975308641975,0,0,0.08641975308641975,0,0)" xlink:href="#an"/><use transform="matrix(0.08641975308641975,0,0,0.08641975308641975,17.28395061728395,0)" xlink:href="#aj"/></g><g id="h"><use transform="matrix(0.08641975308641975,0,0,0.08641975308641975,0,0)" xlink:href="#aq"/><use transform="matrix(0.08641975308641975,0,0,0.08641975308641975,22.382716049382715,0)" xlink:href="#aj"/><use transform="matrix(0.08641975308641975,0,0,0.08641975308641975,39.666666666666664,0)" xlink:href="#ar"/><use transform="matrix(0.08641975308641975,0,0,0.08641975308641975,55.22222222222222,0)" xlink:href="#al"/><use transform="matrix(0.08641975308641975,0,0,0.08641975308641975,65.50617283950618,0)" xlink:href="#ak"/><use transform="matrix(0.08641975308641975,0,0,0.08641975308641975,82.79012345679013,0)" xlink:href="#ae"/><use transform="matrix(0.08641975308641975,0,0,0.08641975308641975,91.43209876543209,0)" xlink:href="#aj"/><use transform="matrix(0.08641975308641975,0,0,0.08641975308641975,108.71604938271604,0)" xlink:href="#ao"/><use transform="matrix(0.08641975308641975,0,0,0.08641975308641975,134.55555555555554,0)" xlink:href="#aj"/><use transform="matrix(0.08641975308641975,0,0,0.08641975308641975,151.8395061728395,0)" xlink:href="#ap"/><use transform="matrix(0.08641975308641975,0,0,0.08641975308641975,169.12345679012344,0)" xlink:href="#ae"/></g><path fill="#333" d="M100-194c63 0 86 42 84 106H49c0 40 14 67 53 68 26 1 43-12 49-29l28 8c-11 28-37 45-77 45C44 4 14-33 15-96c1-61 26-98 85-98zm52 81c6-60-76-77-97-28-3 7-6 17-6 28h103zm-74-98c8-23 27-35 38-54h36v5l-58 49H78" id="ax"/><g id="i"><use transform="matrix(0.06790123456790124,0,0,0.06790123456790124,0,0)" xlink:href="#as"/><use transform="matrix(0.06790123456790124,0,0,0.06790123456790124,17.58641975308642,0)" xlink:href="#al"/><use transform="matrix(0.06790123456790124,0,0,0.06790123456790124,25.66666666666667,0)" xlink:href="#ax"/><use transform="matrix(0.06790123456790124,0,0,0.06790123456790124,39.24691358024692,0)" xlink:href="#aj"/><use transform="matrix(0.06790123456790124,0,0,0.06790123456790124,52.827160493827165,0)" xlink:href="#al"/></g><g id="j"><use transform="matrix(0.06790123456790124,0,0,0.06790123456790124,0,0)" xlink:href="#ar"/><use transform="matrix(0.06790123456790124,0,0,0.06790123456790124,12.222222222222223,0)" xlink:href="#au"/><use transform="matrix(0.06790123456790124,0,0,0.06790123456790124,25.802469135802472,0)" xlink:href="#ao"/><use transform="matrix(0.06790123456790124,0,0,0.06790123456790124,46.104938271604944,0)" xlink:href="#at"/><use transform="matrix(0.06790123456790124,0,0,0.06790123456790124,59.6851851851852,0)" xlink:href="#ae"/><use transform="matrix(0.06790123456790124,0,0,0.06790123456790124,66.47530864197532,0)" xlink:href="#aj"/></g><path fill="#333" d="M106-169C34-169 62-67 57 0H25v-261h32l-1 103c12-21 28-36 61-36 89 0 53 116 60 194h-32v-121c2-32-8-49-39-48" id="ay"/><path fill="#333" d="M101-234c-31-9-42 10-38 44h38v23H63V0H32v-167H5v-23h27c-7-52 17-82 69-68v24" id="az"/><g id="k"><use transform="matrix(0.06790123456790124,0,0,0.06790123456790124,0,0)" xlink:href="#am"/><use transform="matrix(0.06790123456790124,0,0,0.06790123456790124,16.296296296296298,0)" xlink:href="#ak"/><use transform="matrix(0.06790123456790124,0,0,0.06790123456790124,29.876543209876544,0)" xlink:href="#ae"/><use transform="matrix(0.06790123456790124,0,0,0.06790123456790124,36.66666666666667,0)" xlink:href="#ay"/><use transform="matrix(0.06790123456790124,0,0,0.06790123456790124,50.24691358024692,0)" xlink:href="#aj"/><use transform="matrix(0.06790123456790124,0,0,0.06790123456790124,63.827160493827165,0)" xlink:href="#ap"/><use transform="matrix(0.06790123456790124,0,0,0.06790123456790124,77.40740740740742,0)" xlink:href="#ae"/><use transform="matrix(0.06790123456790124,0,0,0.06790123456790124,84.19753086419755,0)" xlink:href="#af"/><use transform="matrix(0.06790123456790124,0,0,0.06790123456790124,89.56172839506173,0)" xlink:href="#az"/><use transform="matrix(0.06790123456790124,0,0,0.06790123456790124,96.35185185185188,0)" xlink:href="#af"/><use transform="matrix(0.06790123456790124,0,0,0.06790123456790124,101.71604938271608,0)" xlink:href="#ar"/><use transform="matrix(0.06790123456790124,0,0,0.06790123456790124,113.93827160493831,0)" xlink:href="#ai"/><use transform="matrix(0.06790123456790124,0,0,0.06790123456790124,127.51851851851856,0)" xlink:href="#ae"/><use transform="matrix(0.06790123456790124,0,0,0.06790123456790124,134.3086419753087,0)" xlink:href="#af"/><use transform="matrix(0.06790123456790124,0,0,0.06790123456790124,139.6728395061729,0)" xlink:href="#au"/><use transform="matrix(0.06790123456790124,0,0,0.06790123456790124,153.25308641975315,0)" xlink:href="#ap"/></g><g id="l"><use transform="matrix(0.06790123456790124,0,0,0.06790123456790124,0,0)" xlink:href="#aq"/><use transform="matrix(0.06790123456790124,0,0,0.06790123456790124,17.58641975308642,0)" xlink:href="#aj"/><use transform="matrix(0.06790123456790124,0,0,0.06790123456790124,31.16666666666667,0)" xlink:href="#ar"/><use transform="matrix(0.06790123456790124,0,0,0.06790123456790124,43.38888888888889,0)" xlink:href="#ay"/><use transform="matrix(0.06790123456790124,0,0,0.06790123456790124,56.96913580246914,0)" xlink:href="#aj"/><use transform="matrix(0.06790123456790124,0,0,0.06790123456790124,70.5493827160494,0)" xlink:href="#al"/><use transform="matrix(0.06790123456790124,0,0,0.06790123456790124,78.62962962962965,0)" xlink:href="#ar"/><use transform="matrix(0.06790123456790124,0,0,0.06790123456790124,90.85185185185188,0)" xlink:href="#ay"/><use transform="matrix(0.06790123456790124,0,0,0.06790123456790124,104.43209876543213,0)" xlink:href="#aj"/><use transform="matrix(0.06790123456790124,0,0,0.06790123456790124,118.01234567901238,0)" xlink:href="#al"/></g><g id="m"><use transform="matrix(0.06790123456790124,0,0,0.06790123456790124,0,0)" xlink:href="#au"/><use transform="matrix(0.06790123456790124,0,0,0.06790123456790124,13.580246913580249,0)" xlink:href="#az"/><use transform="matrix(0.06790123456790124,0,0,0.06790123456790124,19.895061728395063,0)" xlink:href="#az"/><use transform="matrix(0.06790123456790124,0,0,0.06790123456790124,26.685185185185187,0)" xlink:href="#al"/><use transform="matrix(0.06790123456790124,0,0,0.06790123456790124,34.76543209876544,0)" xlink:href="#aj"/><use transform="matrix(0.06790123456790124,0,0,0.06790123456790124,48.345679012345684,0)" xlink:href="#ah"/></g><path fill="#333" d="M87 75C49 33 22-17 22-94c0-76 28-126 65-167h31c-38 41-64 92-64 168S80 34 118 75H87" id="aA"/><path fill="#333" d="M108 0H70L1-190h34L89-25l56-165h34" id="aB"/><g id="n"><use transform="matrix(0.06790123456790124,0,0,0.06790123456790124,0,0)" xlink:href="#aA"/><use transform="matrix(0.06790123456790124,0,0,0.06790123456790124,8.080246913580249,0)" xlink:href="#ai"/><use transform="matrix(0.06790123456790124,0,0,0.06790123456790124,21.660493827160497,0)" xlink:href="#aB"/><use transform="matrix(0.06790123456790124,0,0,0.06790123456790124,33.88271604938272,0)" xlink:href="#aj"/><use transform="matrix(0.06790123456790124,0,0,0.06790123456790124,47.46296296296297,0)" xlink:href="#ar"/></g><path fill="#333" d="M33-261c38 41 65 92 65 168S71 34 33 75H2C39 34 66-17 66-93S39-220 2-261h31" id="aC"/><g id="o"><use transform="matrix(0.06790123456790124,0,0,0.06790123456790124,0,0)" xlink:href="#az"/><use transform="matrix(0.06790123456790124,0,0,0.06790123456790124,6.790123456790124,0)" xlink:href="#af"/><use transform="matrix(0.06790123456790124,0,0,0.06790123456790124,12.154320987654323,0)" xlink:href="#ag"/><use transform="matrix(0.06790123456790124,0,0,0.06790123456790124,17.518518518518523,0)" xlink:href="#ae"/><use transform="matrix(0.06790123456790124,0,0,0.06790123456790124,24.308641975308646,0)" xlink:href="#al"/><use transform="matrix(0.06790123456790124,0,0,0.06790123456790124,32.38888888888889,0)" xlink:href="#aj"/><use transform="matrix(0.06790123456790124,0,0,0.06790123456790124,45.96913580246914,0)" xlink:href="#ah"/><use transform="matrix(0.06790123456790124,0,0,0.06790123456790124,58.19135802469136,0)" xlink:href="#aC"/></g><g id="p"><use transform="matrix(0.06790123456790124,0,0,0.06790123456790124,0,0)" xlink:href="#as"/><use transform="matrix(0.06790123456790124,0,0,0.06790123456790124,17.58641975308642,0)" xlink:href="#au"/><use transform="matrix(0.06790123456790124,0,0,0.06790123456790124,31.16666666666667,0)" xlink:href="#ap"/><use transform="matrix(0.06790123456790124,0,0,0.06790123456790124,44.74691358024692,0)" xlink:href="#ah"/><use transform="matrix(0.06790123456790124,0,0,0.06790123456790124,56.96913580246914,0)" xlink:href="#ak"/><use transform="matrix(0.06790123456790124,0,0,0.06790123456790124,70.5493827160494,0)" xlink:href="#ag"/><use transform="matrix(0.06790123456790124,0,0,0.06790123456790124,75.9135802469136,0)" xlink:href="#ae"/><use transform="matrix(0.06790123456790124,0,0,0.06790123456790124,82.70370370370371,0)" xlink:href="#aj"/><use transform="matrix(0.06790123456790124,0,0,0.06790123456790124,96.28395061728398,0)" xlink:href="#al"/></g><g id="q"><use transform="matrix(0.06790123456790124,0,0,0.06790123456790124,0,0)" xlink:href="#ag"/><use transform="matrix(0.06790123456790124,0,0,0.06790123456790124,5.364197530864199,0)" xlink:href="#aj"/><use transform="matrix(0.06790123456790124,0,0,0.06790123456790124,18.944444444444446,0)" xlink:href="#ah"/></g><g id="r"><use transform="matrix(0.06790123456790124,0,0,0.06790123456790124,0,0)" xlink:href="#au"/><use transform="matrix(0.06790123456790124,0,0,0.06790123456790124,13.580246913580249,0)" xlink:href="#az"/><use transform="matrix(0.06790123456790124,0,0,0.06790123456790124,19.895061728395063,0)" xlink:href="#az"/><use transform="matrix(0.06790123456790124,0,0,0.06790123456790124,26.685185185185187,0)" xlink:href="#al"/><use transform="matrix(0.06790123456790124,0,0,0.06790123456790124,34.76543209876544,0)" xlink:href="#aj"/><use transform="matrix(0.06790123456790124,0,0,0.06790123456790124,48.345679012345684,0)" xlink:href="#ah"/></g><g id="s"><use transform="matrix(0.06790123456790124,0,0,0.06790123456790124,0,0)" xlink:href="#as"/><use transform="matrix(0.06790123456790124,0,0,0.06790123456790124,17.58641975308642,0)" xlink:href="#ai"/><use transform="matrix(0.06790123456790124,0,0,0.06790123456790124,31.16666666666667,0)" xlink:href="#ap"/><use transform="matrix(0.06790123456790124,0,0,0.06790123456790124,44.74691358024692,0)" xlink:href="#an"/><use transform="matrix(0.06790123456790124,0,0,0.06790123456790124,58.32716049382716,0)" xlink:href="#af"/><use transform="matrix(0.06790123456790124,0,0,0.06790123456790124,63.69135802469136,0)" xlink:href="#an"/><use transform="matrix(0.06790123456790124,0,0,0.06790123456790124,77.27160493827161,0)" xlink:href="#ai"/><use transform="matrix(0.06790123456790124,0,0,0.06790123456790124,90.85185185185186,0)" xlink:href="#ae"/><use transform="matrix(0.06790123456790124,0,0,0.06790123456790124,97.64197530864199,0)" xlink:href="#aj"/><use transform="matrix(0.06790123456790124,0,0,0.06790123456790124,111.22222222222224,0)" xlink:href="#al"/></g><path fill="#333" d="M141-36C126-15 110 5 73 4 37 3 15-17 15-53c-1-64 63-63 125-63 3-35-9-54-41-54-24 1-41 7-42 31l-33-3c5-37 33-52 76-52 45 0 72 20 72 64v82c-1 20 7 32 28 27v20c-31 9-61-2-59-35zM48-53c0 20 12 33 32 33 41-3 63-29 60-74-43 2-92-5-92 41zm62-158l-58-49v-5h36c12 19 30 32 38 54h-16" id="aD"/><use transform="matrix(0.06790123456790124,0,0,0.06790123456790124,0,0)" xlink:href="#aD" id="t"/><g id="u"><use transform="matrix(0.06790123456790124,0,0,0.06790123456790124,0,0)" xlink:href="#an"/><use transform="matrix(0.06790123456790124,0,0,0.06790123456790124,13.580246913580249,0)" xlink:href="#aj"/><use transform="matrix(0.06790123456790124,0,0,0.06790123456790124,27.160493827160497,0)" xlink:href="#ah"/></g><path fill="#333" d="M30-248c118-7 216 8 213 122C240-48 200 0 122 0H30v-248zM63-27c89 8 146-16 146-99s-60-101-146-95v194" id="aE"/><g id="v"><use transform="matrix(0.06790123456790124,0,0,0.06790123456790124,0,0)" xlink:href="#aE"/><use transform="matrix(0.06790123456790124,0,0,0.06790123456790124,17.58641975308642,0)" xlink:href="#aj"/><use transform="matrix(0.06790123456790124,0,0,0.06790123456790124,31.16666666666667,0)" xlink:href="#ao"/><use transform="matrix(0.06790123456790124,0,0,0.06790123456790124,51.46913580246915,0)" xlink:href="#ai"/><use transform="matrix(0.06790123456790124,0,0,0.06790123456790124,65.0493827160494,0)" xlink:href="#ap"/><use transform="matrix(0.06790123456790124,0,0,0.06790123456790124,78.62962962962965,0)" xlink:href="#an"/><use transform="matrix(0.06790123456790124,0,0,0.06790123456790124,92.2098765432099,0)" xlink:href="#aj"/><use transform="matrix(0.06790123456790124,0,0,0.06790123456790124,105.79012345679016,0)" xlink:href="#al"/></g><path fill="#333" d="M24-231v-30h32v30H24zM-9 49c24 4 33-6 33-30v-209h32V24c2 40-23 58-65 49V49" id="aF"/><g id="w"><use transform="matrix(0.06790123456790124,0,0,0.06790123456790124,0,0)" xlink:href="#al"/><use transform="matrix(0.06790123456790124,0,0,0.06790123456790124,8.080246913580249,0)" xlink:href="#aj"/><use transform="matrix(0.06790123456790124,0,0,0.06790123456790124,21.660493827160497,0)" xlink:href="#aF"/><use transform="matrix(0.06790123456790124,0,0,0.06790123456790124,27.024691358024697,0)" xlink:href="#au"/><use transform="matrix(0.06790123456790124,0,0,0.06790123456790124,40.604938271604944,0)" xlink:href="#af"/><use transform="matrix(0.06790123456790124,0,0,0.06790123456790124,45.96913580246914,0)" xlink:href="#ap"/><use transform="matrix(0.06790123456790124,0,0,0.06790123456790124,59.54938271604939,0)" xlink:href="#an"/><use transform="matrix(0.06790123456790124,0,0,0.06790123456790124,73.12962962962965,0)" xlink:href="#al"/><use transform="matrix(0.06790123456790124,0,0,0.06790123456790124,81.20987654320989,0)" xlink:href="#aj"/></g><g id="x"><use transform="matrix(0.06790123456790124,0,0,0.06790123456790124,0,0)" xlink:href="#ak"/><use transform="matrix(0.06790123456790124,0,0,0.06790123456790124,13.580246913580249,0)" xlink:href="#ap"/><use transform="matrix(0.06790123456790124,0,0,0.06790123456790124,27.160493827160497,0)" xlink:href="#aj"/></g><path fill="#333" d="M177-190C167-65 218 103 67 71c-23-6-38-20-44-43l32-5c15 47 100 32 89-28v-30C133-14 115 1 83 1 29 1 15-40 15-95c0-56 16-97 71-98 29-1 48 16 59 35 1-10 0-23 2-32h30zM94-22c36 0 50-32 50-73 0-42-14-75-50-75-39 0-46 34-46 75s6 73 46 73" id="aG"/><g id="y"><use transform="matrix(0.06790123456790124,0,0,0.06790123456790124,0,0)" xlink:href="#au"/><use transform="matrix(0.06790123456790124,0,0,0.06790123456790124,13.580246913580249,0)" xlink:href="#al"/><use transform="matrix(0.06790123456790124,0,0,0.06790123456790124,21.660493827160497,0)" xlink:href="#aG"/><use transform="matrix(0.06790123456790124,0,0,0.06790123456790124,35.24074074074075,0)" xlink:href="#ai"/><use transform="matrix(0.06790123456790124,0,0,0.06790123456790124,48.820987654320994,0)" xlink:href="#ap"/><use transform="matrix(0.06790123456790124,0,0,0.06790123456790124,62.40123456790124,0)" xlink:href="#af"/><use transform="matrix(0.06790123456790124,0,0,0.06790123456790124,67.76543209876544,0)" xlink:href="#ah"/><use transform="matrix(0.06790123456790124,0,0,0.06790123456790124,79.98765432098767,0)" xlink:href="#ai"/><use transform="matrix(0.06790123456790124,0,0,0.06790123456790124,93.56790123456793,0)" xlink:href="#ae"/><use transform="matrix(0.06790123456790124,0,0,0.06790123456790124,100.35802469135805,0)" xlink:href="#af"/><use transform="matrix(0.06790123456790124,0,0,0.06790123456790124,105.72222222222226,0)" xlink:href="#au"/><use transform="matrix(0.06790123456790124,0,0,0.06790123456790124,119.30246913580251,0)" xlink:href="#ap"/></g><g id="z"><use transform="matrix(0.06790123456790124,0,0,0.06790123456790124,0,0)" xlink:href="#ag"/><use transform="matrix(0.06790123456790124,0,0,0.06790123456790124,5.364197530864199,0)" xlink:href="#ai"/></g><g id="A"><use transform="matrix(0.06790123456790124,0,0,0.06790123456790124,0,0)" xlink:href="#ar"/><use transform="matrix(0.06790123456790124,0,0,0.06790123456790124,12.222222222222223,0)" xlink:href="#al"/><use transform="matrix(0.06790123456790124,0,0,0.06790123456790124,20.302469135802472,0)" xlink:href="#ax"/><use transform="matrix(0.06790123456790124,0,0,0.06790123456790124,33.88271604938272,0)" xlink:href="#ai"/><use transform="matrix(0.06790123456790124,0,0,0.06790123456790124,47.46296296296297,0)" xlink:href="#ae"/><use transform="matrix(0.06790123456790124,0,0,0.06790123456790124,54.253086419753096,0)" xlink:href="#af"/><use transform="matrix(0.06790123456790124,0,0,0.06790123456790124,59.61728395061729,0)" xlink:href="#au"/><use transform="matrix(0.06790123456790124,0,0,0.06790123456790124,73.19753086419755,0)" xlink:href="#ap"/></g><path fill="#333" d="M47-170H22l-4-78h33" id="aH"/><g id="B"><use transform="matrix(0.06790123456790124,0,0,0.06790123456790124,0,0)" xlink:href="#an"/><use transform="matrix(0.06790123456790124,0,0,0.06790123456790124,13.580246913580249,0)" xlink:href="#aH"/><use transform="matrix(0.06790123456790124,0,0,0.06790123456790124,18.197530864197535,0)" xlink:href="#ak"/><use transform="matrix(0.06790123456790124,0,0,0.06790123456790124,31.77777777777778,0)" xlink:href="#ap"/><use transform="matrix(0.06790123456790124,0,0,0.06790123456790124,45.358024691358025,0)" xlink:href="#aj"/></g><g id="C"><use transform="matrix(0.06790123456790124,0,0,0.06790123456790124,0,0)" xlink:href="#am"/><use transform="matrix(0.06790123456790124,0,0,0.06790123456790124,16.296296296296298,0)" xlink:href="#aF"/><use transform="matrix(0.06790123456790124,0,0,0.06790123456790124,21.660493827160497,0)" xlink:href="#au"/><use transform="matrix(0.06790123456790124,0,0,0.06790123456790124,35.24074074074075,0)" xlink:href="#ak"/><use transform="matrix(0.06790123456790124,0,0,0.06790123456790124,48.820987654320994,0)" xlink:href="#ae"/><use transform="matrix(0.06790123456790124,0,0,0.06790123456790124,55.61111111111112,0)" xlink:href="#aj"/><use transform="matrix(0.06790123456790124,0,0,0.06790123456790124,69.19135802469137,0)" xlink:href="#al"/></g><g id="D"><use transform="matrix(0.06790123456790124,0,0,0.06790123456790124,0,0)" xlink:href="#am"/><use transform="matrix(0.06790123456790124,0,0,0.06790123456790124,16.296296296296298,0)" xlink:href="#ar"/><use transform="matrix(0.06790123456790124,0,0,0.06790123456790124,28.51851851851852,0)" xlink:href="#ar"/><use transform="matrix(0.06790123456790124,0,0,0.06790123456790124,40.74074074074074,0)" xlink:href="#au"/><use transform="matrix(0.06790123456790124,0,0,0.06790123456790124,54.32098765432099,0)" xlink:href="#al"/><use transform="matrix(0.06790123456790124,0,0,0.06790123456790124,62.401234567901234,0)" xlink:href="#an"/><use transform="matrix(0.06790123456790124,0,0,0.06790123456790124,75.98148148148148,0)" xlink:href="#aj"/><use transform="matrix(0.06790123456790124,0,0,0.06790123456790124,89.56172839506173,0)" xlink:href="#al"/></g><g id="E"><use transform="matrix(0.06790123456790124,0,0,0.06790123456790124,0,0)" xlink:href="#an"/><use transform="matrix(0.06790123456790124,0,0,0.06790123456790124,13.580246913580249,0)" xlink:href="#aj"/><use transform="matrix(0.06790123456790124,0,0,0.06790123456790124,27.160493827160497,0)" xlink:href="#ah"/></g><g id="F"><use transform="matrix(0.06790123456790124,0,0,0.06790123456790124,0,0)" xlink:href="#an"/><use transform="matrix(0.06790123456790124,0,0,0.06790123456790124,13.580246913580249,0)" xlink:href="#al"/><use transform="matrix(0.06790123456790124,0,0,0.06790123456790124,21.660493827160497,0)" xlink:href="#au"/><use transform="matrix(0.06790123456790124,0,0,0.06790123456790124,35.24074074074075,0)" xlink:href="#af"/><use transform="matrix(0.06790123456790124,0,0,0.06790123456790124,40.604938271604944,0)" xlink:href="#ae"/><use transform="matrix(0.06790123456790124,0,0,0.06790123456790124,47.39506172839507,0)" xlink:href="#ah"/></g><g id="G"><use transform="matrix(0.06790123456790124,0,0,0.06790123456790124,0,0)" xlink:href="#an"/><use transform="matrix(0.06790123456790124,0,0,0.06790123456790124,13.580246913580249,0)" xlink:href="#aH"/><use transform="matrix(0.06790123456790124,0,0,0.06790123456790124,18.197530864197535,0)" xlink:href="#ai"/><use transform="matrix(0.06790123456790124,0,0,0.06790123456790124,31.77777777777778,0)" xlink:href="#an"/><use transform="matrix(0.06790123456790124,0,0,0.06790123456790124,45.358024691358025,0)" xlink:href="#ao"/><use transform="matrix(0.06790123456790124,0,0,0.06790123456790124,65.6604938271605,0)" xlink:href="#af"/><use transform="matrix(0.06790123456790124,0,0,0.06790123456790124,71.0246913580247,0)" xlink:href="#ap"/><use transform="matrix(0.06790123456790124,0,0,0.06790123456790124,84.60493827160495,0)" xlink:href="#af"/><use transform="matrix(0.06790123456790124,0,0,0.06790123456790124,89.96913580246915,0)" xlink:href="#ah"/><use transform="matrix(0.06790123456790124,0,0,0.06790123456790124,102.19135802469138,0)" xlink:href="#ae"/><use transform="matrix(0.06790123456790124,0,0,0.06790123456790124,108.98148148148151,0)" xlink:href="#al"/><use transform="matrix(0.06790123456790124,0,0,0.06790123456790124,117.06172839506176,0)" xlink:href="#ai"/><use transform="matrix(0.06790123456790124,0,0,0.06790123456790124,130.641975308642,0)" xlink:href="#ae"/><use transform="matrix(0.06790123456790124,0,0,0.06790123456790124,137.43209876543213,0)" xlink:href="#aj"/><use transform="matrix(0.06790123456790124,0,0,0.06790123456790124,151.0123456790124,0)" xlink:href="#ak"/><use transform="matrix(0.06790123456790124,0,0,0.06790123456790124,164.59259259259264,0)" xlink:href="#al"/><use transform="matrix(0.06790123456790124,0,0,0.06790123456790124,172.6728395061729,0)" xlink:href="#ah"/></g><path fill="#333" d="M143 4C61 4 22-44 18-125c-5-107 100-154 193-111 17 8 29 25 37 43l-32 9c-13-25-37-40-76-40-61 0-88 39-88 99 0 61 29 100 91 101 35 0 62-11 79-27v-45h-74v-28h105v86C228-13 192 4 143 4" id="aI"/><g id="H"><use transform="matrix(0.06790123456790124,0,0,0.06790123456790124,0,0)" xlink:href="#aI"/><use transform="matrix(0.06790123456790124,0,0,0.06790123456790124,19.01234567901235,0)" xlink:href="#ax"/><use transform="matrix(0.06790123456790124,0,0,0.06790123456790124,32.592592592592595,0)" xlink:href="#al"/><use transform="matrix(0.06790123456790124,0,0,0.06790123456790124,40.67283950617284,0)" xlink:href="#aj"/><use transform="matrix(0.06790123456790124,0,0,0.06790123456790124,54.25308641975309,0)" xlink:href="#al"/></g><path fill="#333" d="M68-38c1 34 0 65-14 84H32c9-13 17-26 17-46H33v-38h35" id="aJ"/><g id="I"><use transform="matrix(0.06790123456790124,0,0,0.06790123456790124,0,0)" xlink:href="#aA"/><use transform="matrix(0.06790123456790124,0,0,0.06790123456790124,8.080246913580249,0)" xlink:href="#as"/><use transform="matrix(0.06790123456790124,0,0,0.06790123456790124,25.66666666666667,0)" xlink:href="#al"/><use transform="matrix(0.06790123456790124,0,0,0.06790123456790124,33.74691358024692,0)" xlink:href="#ax"/><use transform="matrix(0.06790123456790124,0,0,0.06790123456790124,47.327160493827165,0)" xlink:href="#ai"/><use transform="matrix(0.06790123456790124,0,0,0.06790123456790124,60.90740740740741,0)" xlink:href="#ae"/><use transform="matrix(0.06790123456790124,0,0,0.06790123456790124,67.69753086419753,0)" xlink:href="#af"/><use transform="matrix(0.06790123456790124,0,0,0.06790123456790124,73.06172839506173,0)" xlink:href="#au"/><use transform="matrix(0.06790123456790124,0,0,0.06790123456790124,86.64197530864199,0)" xlink:href="#ap"/><use transform="matrix(0.06790123456790124,0,0,0.06790123456790124,100.22222222222224,0)" xlink:href="#aJ"/></g><path fill="#333" d="M240 0l2-218c-23 76-54 145-80 218h-23L58-218 59 0H30v-248h44l77 211c21-75 51-140 76-211h43V0h-30" id="aK"/><g id="J"><use transform="matrix(0.06790123456790124,0,0,0.06790123456790124,0,0)" xlink:href="#aK"/><use transform="matrix(0.06790123456790124,0,0,0.06790123456790124,20.302469135802472,0)" xlink:href="#au"/><use transform="matrix(0.06790123456790124,0,0,0.06790123456790124,33.88271604938272,0)" xlink:href="#an"/><use transform="matrix(0.06790123456790124,0,0,0.06790123456790124,47.46296296296297,0)" xlink:href="#af"/><use transform="matrix(0.06790123456790124,0,0,0.06790123456790124,52.827160493827165,0)" xlink:href="#az"/><use transform="matrix(0.06790123456790124,0,0,0.06790123456790124,59.61728395061729,0)" xlink:href="#af"/><use transform="matrix(0.06790123456790124,0,0,0.06790123456790124,64.9814814814815,0)" xlink:href="#ar"/><use transform="matrix(0.06790123456790124,0,0,0.06790123456790124,77.20370370370372,0)" xlink:href="#ai"/><use transform="matrix(0.06790123456790124,0,0,0.06790123456790124,90.78395061728398,0)" xlink:href="#ae"/><use transform="matrix(0.06790123456790124,0,0,0.06790123456790124,97.5740740740741,0)" xlink:href="#af"/><use transform="matrix(0.06790123456790124,0,0,0.06790123456790124,102.93827160493831,0)" xlink:href="#au"/><use transform="matrix(0.06790123456790124,0,0,0.06790123456790124,116.51851851851856,0)" xlink:href="#ap"/><use transform="matrix(0.06790123456790124,0,0,0.06790123456790124,130.09876543209882,0)" xlink:href="#aJ"/></g><path fill="#333" d="M185-189c-5-48-123-54-124 2 14 75 158 14 163 119 3 78-121 87-175 55-17-10-28-26-33-46l33-7c5 56 141 63 141-1 0-78-155-14-162-118-5-82 145-84 179-34 5 7 8 16 11 25" id="aL"/><g id="K"><use transform="matrix(0.06790123456790124,0,0,0.06790123456790124,0,0)" xlink:href="#aL"/><use transform="matrix(0.06790123456790124,0,0,0.06790123456790124,16.296296296296298,0)" xlink:href="#ak"/><use transform="matrix(0.06790123456790124,0,0,0.06790123456790124,29.876543209876544,0)" xlink:href="#at"/><use transform="matrix(0.06790123456790124,0,0,0.06790123456790124,43.45679012345679,0)" xlink:href="#at"/><use transform="matrix(0.06790123456790124,0,0,0.06790123456790124,57.03703703703704,0)" xlink:href="#al"/><use transform="matrix(0.06790123456790124,0,0,0.06790123456790124,65.11728395061729,0)" xlink:href="#aj"/><use transform="matrix(0.06790123456790124,0,0,0.06790123456790124,78.69753086419755,0)" xlink:href="#ah"/><use transform="matrix(0.06790123456790124,0,0,0.06790123456790124,90.91975308641979,0)" xlink:href="#af"/><use transform="matrix(0.06790123456790124,0,0,0.06790123456790124,96.28395061728398,0)" xlink:href="#au"/><use transform="matrix(0.06790123456790124,0,0,0.06790123456790124,109.86419753086423,0)" xlink:href="#ap"/><use transform="matrix(0.06790123456790124,0,0,0.06790123456790124,123.44444444444447,0)" xlink:href="#aJ"/></g><path fill="#333" d="M137 0h-34L2-248h35l83 218 83-218h36" id="aM"/><g id="L"><use transform="matrix(0.06790123456790124,0,0,0.06790123456790124,0,0)" xlink:href="#aM"/><use transform="matrix(0.06790123456790124,0,0,0.06790123456790124,14.938271604938272,0)" xlink:href="#au"/><use transform="matrix(0.06790123456790124,0,0,0.06790123456790124,28.51851851851852,0)" xlink:href="#af"/><use transform="matrix(0.06790123456790124,0,0,0.06790123456790124,33.882716049382715,0)" xlink:href="#al"/></g><g id="M"><use transform="matrix(0.06790123456790124,0,0,0.06790123456790124,0,0)" xlink:href="#ag"/><use transform="matrix(0.06790123456790124,0,0,0.06790123456790124,5.364197530864199,0)" xlink:href="#aj"/><use transform="matrix(0.06790123456790124,0,0,0.06790123456790124,18.944444444444446,0)" xlink:href="#ah"/></g><g id="N"><use transform="matrix(0.06790123456790124,0,0,0.06790123456790124,0,0)" xlink:href="#ar"/><use transform="matrix(0.06790123456790124,0,0,0.06790123456790124,12.222222222222223,0)" xlink:href="#ai"/><use transform="matrix(0.06790123456790124,0,0,0.06790123456790124,25.802469135802472,0)" xlink:href="#ap"/><use transform="matrix(0.06790123456790124,0,0,0.06790123456790124,39.38271604938272,0)" xlink:href="#an"/><use transform="matrix(0.06790123456790124,0,0,0.06790123456790124,52.96296296296297,0)" xlink:href="#af"/><use transform="matrix(0.06790123456790124,0,0,0.06790123456790124,58.32716049382716,0)" xlink:href="#an"/><use transform="matrix(0.06790123456790124,0,0,0.06790123456790124,71.90740740740742,0)" xlink:href="#ai"/><use transform="matrix(0.06790123456790124,0,0,0.06790123456790124,85.48765432098767,0)" xlink:href="#ae"/><use transform="matrix(0.06790123456790124,0,0,0.06790123456790124,92.2777777777778,0)" xlink:href="#ah"/></g><path fill="#333" d="M234-2c-28 10-62 0-77-18C117 19 8 12 13-65c3-43 29-61 60-76-25-40-17-114 47-108 35 3 59 15 59 50 0 44-40 53-71 69 14 26 32 50 51 72 14-21 24-43 30-72l26 8c-9 33-21 57-38 82 13 13 33 22 57 15v23zM97-151c25-10 52-18 56-48-1-18-13-29-33-29-42 0-39 50-23 77zM42-66c-3 51 71 58 98 28-20-24-41-51-56-80-23 10-40 24-42 52" id="aN"/><use transform="matrix(0.06790123456790124,0,0,0.06790123456790124,0,0)" xlink:href="#aN" id="O"/><g id="P"><use transform="matrix(0.06790123456790124,0,0,0.06790123456790124,0,0)" xlink:href="#ae"/><use transform="matrix(0.06790123456790124,0,0,0.06790123456790124,6.790123456790124,0)" xlink:href="#ax"/><use transform="matrix(0.06790123456790124,0,0,0.06790123456790124,20.370370370370374,0)" xlink:href="#ag"/><use transform="matrix(0.06790123456790124,0,0,0.06790123456790124,25.734567901234573,0)" xlink:href="#ax"/><use transform="matrix(0.06790123456790124,0,0,0.06790123456790124,39.314814814814824,0)" xlink:href="#ar"/><use transform="matrix(0.06790123456790124,0,0,0.06790123456790124,51.537037037037045,0)" xlink:href="#ay"/><use transform="matrix(0.06790123456790124,0,0,0.06790123456790124,65.11728395061729,0)" xlink:href="#ai"/><use transform="matrix(0.06790123456790124,0,0,0.06790123456790124,78.69753086419755,0)" xlink:href="#al"/><use transform="matrix(0.06790123456790124,0,0,0.06790123456790124,86.7777777777778,0)" xlink:href="#aG"/><use transform="matrix(0.06790123456790124,0,0,0.06790123456790124,100.35802469135805,0)" xlink:href="#aj"/><use transform="matrix(0.06790123456790124,0,0,0.06790123456790124,113.93827160493831,0)" xlink:href="#al"/></g><g id="Q"><use transform="matrix(0.06790123456790124,0,0,0.06790123456790124,0,0)" xlink:href="#ag"/><use transform="matrix(0.06790123456790124,0,0,0.06790123456790124,5.364197530864199,0)" xlink:href="#aj"/><use transform="matrix(0.06790123456790124,0,0,0.06790123456790124,18.944444444444446,0)" xlink:href="#ak"/><use transform="matrix(0.06790123456790124,0,0,0.06790123456790124,32.5246913580247,0)" xlink:href="#al"/><use transform="matrix(0.06790123456790124,0,0,0.06790123456790124,40.604938271604944,0)" xlink:href="#ah"/></g><g id="R"><use transform="matrix(0.06790123456790124,0,0,0.06790123456790124,0,0)" xlink:href="#an"/><use transform="matrix(0.06790123456790124,0,0,0.06790123456790124,13.580246913580249,0)" xlink:href="#au"/><use transform="matrix(0.06790123456790124,0,0,0.06790123456790124,27.160493827160497,0)" xlink:href="#ah"/><use transform="matrix(0.06790123456790124,0,0,0.06790123456790124,39.38271604938272,0)" xlink:href="#ah"/><use transform="matrix(0.06790123456790124,0,0,0.06790123456790124,51.604938271604944,0)" xlink:href="#af"/><use transform="matrix(0.06790123456790124,0,0,0.06790123456790124,56.96913580246914,0)" xlink:href="#aj"/><use transform="matrix(0.06790123456790124,0,0,0.06790123456790124,70.5493827160494,0)" xlink:href="#al"/><use transform="matrix(0.06790123456790124,0,0,0.06790123456790124,78.62962962962965,0)" xlink:href="#ah"/></g><path fill="#333" d="M142-158h-39l-4-90h48zm-75 0H28l-4-90h48" id="aO"/><path fill="#333" d="M185-48c-13 30-37 53-82 52C43 2 14-33 14-96s30-98 90-98c62 0 83 45 84 108H66c0 31 8 55 39 56 18 0 30-7 34-22zm-45-69c5-46-57-63-70-21-2 6-4 13-4 21h74" id="aP"/><path fill="#333" d="M144 0l-44-69L55 0H2l70-98-66-92h53l41 62 40-62h54l-67 91 71 99h-54" id="aQ"/><path fill="#333" d="M115-3C79 11 28 4 28-45v-112H4v-33h27l15-45h31v45h36v33H77v99c-1 23 16 31 38 25v30" id="aR"/><path fill="#333" d="M135-194c87-1 58 113 63 194h-50c-7-57 23-157-34-157-59 0-34 97-39 157H25l-1-190h47c2 12-1 28 3 38 12-26 28-41 61-42" id="aS"/><path fill="#333" d="M88-194c31-1 46 15 58 34l-1-101h50l1 261h-48c-2-10 0-23-3-31C134-8 116 4 84 4 32 4 16-41 15-95c0-56 19-97 73-99zm17 164c33 0 40-30 41-66 1-37-9-64-41-64s-38 30-39 65c0 43 13 65 39 65" id="aT"/><path fill="#333" d="M137-138c1-29-70-34-71-4 15 46 118 7 119 86 1 83-164 76-172 9l43-7c4 19 20 25 44 25 33 8 57-30 24-41C81-84 22-81 20-136c-2-80 154-74 161-7" id="aU"/><g id="S"><use transform="matrix(0.06790123456790124,0,0,0.06790123456790124,0,0)" xlink:href="#aO"/><use transform="matrix(0.06790123456790124,0,0,0.06790123456790124,11.543209876543212,0)" xlink:href="#aP"/><use transform="matrix(0.06790123456790124,0,0,0.06790123456790124,25.123456790123463,0)" xlink:href="#aQ"/><use transform="matrix(0.06790123456790124,0,0,0.06790123456790124,38.70370370370371,0)" xlink:href="#aR"/><use transform="matrix(0.06790123456790124,0,0,0.06790123456790124,46.783950617283956,0)" xlink:href="#aP"/><use transform="matrix(0.06790123456790124,0,0,0.06790123456790124,60.3641975308642,0)" xlink:href="#aS"/><use transform="matrix(0.06790123456790124,0,0,0.06790123456790124,75.23456790123457,0)" xlink:href="#aT"/><use transform="matrix(0.06790123456790124,0,0,0.06790123456790124,90.10493827160494,0)" xlink:href="#aU"/><use transform="matrix(0.06790123456790124,0,0,0.06790123456790124,103.68518518518519,0)" xlink:href="#aO"/></g><path fill="#333" d="M147 0H94L2-248h55l64 206c17-72 42-137 63-206h54" id="aV"/><path fill="#333" d="M133-34C117-15 103 5 69 4 32 3 11-16 11-54c-1-60 55-63 116-61 1-26-3-47-28-47-18 1-26 9-28 27l-52-2c7-38 36-58 82-57s74 22 75 68l1 82c-1 14 12 18 25 15v27c-30 8-71 5-69-32zm-48 3c29 0 43-24 42-57-32 0-66-3-65 30 0 17 8 27 23 27" id="aW"/><path fill="#333" d="M25 0v-261h50V0H25" id="aX"/><path fill="#333" d="M25-224v-37h50v37H25zM25 0v-190h50V0H25" id="aY"/><g id="T"><use transform="matrix(0.06790123456790124,0,0,0.06790123456790124,0,0)" xlink:href="#aV"/><use transform="matrix(0.06790123456790124,0,0,0.06790123456790124,14.938271604938272,0)" xlink:href="#aW"/><use transform="matrix(0.06790123456790124,0,0,0.06790123456790124,28.51851851851852,0)" xlink:href="#aX"/><use transform="matrix(0.06790123456790124,0,0,0.06790123456790124,35.308641975308646,0)" xlink:href="#aY"/><use transform="matrix(0.06790123456790124,0,0,0.06790123456790124,42.09876543209877,0)" xlink:href="#aT"/><use transform="matrix(0.06790123456790124,0,0,0.06790123456790124,56.96913580246915,0)" xlink:href="#aP"/></g><g id="U"><use transform="matrix(0.06790123456790124,0,0,0.06790123456790124,0,0)" xlink:href="#aX"/><use transform="matrix(0.06790123456790124,0,0,0.06790123456790124,6.790123456790124,0)" xlink:href="#aW"/></g><path fill="#333" d="M220-157c-53 9-28 100-34 157h-49v-107c1-27-5-49-29-50C55-147 81-57 75 0H25l-1-190h47c2 12-1 28 3 38 10-53 101-56 108 0 13-22 24-43 59-42 82 1 51 116 57 194h-49v-107c-1-25-5-48-29-50" id="aZ"/><g id="V"><use transform="matrix(0.06790123456790124,0,0,0.06790123456790124,0,0)" xlink:href="#aT"/><use transform="matrix(0.06790123456790124,0,0,0.06790123456790124,14.870370370370372,0)" xlink:href="#aP"/><use transform="matrix(0.06790123456790124,0,0,0.06790123456790124,28.45061728395062,0)" xlink:href="#aZ"/><use transform="matrix(0.06790123456790124,0,0,0.06790123456790124,50.17901234567902,0)" xlink:href="#aW"/><use transform="matrix(0.06790123456790124,0,0,0.06790123456790124,63.75925925925927,0)" xlink:href="#aS"/><use transform="matrix(0.06790123456790124,0,0,0.06790123456790124,78.62962962962962,0)" xlink:href="#aT"/><use transform="matrix(0.06790123456790124,0,0,0.06790123456790124,93.5,0)" xlink:href="#aP"/></g><g id="W"><use transform="matrix(0.06790123456790123,0,0,0.06790123456790123,0,0)" xlink:href="#aV"/><use transform="matrix(0.06790123456790123,0,0,0.06790123456790123,14.938271604938269,0)" xlink:href="#aW"/><use transform="matrix(0.06790123456790123,0,0,0.06790123456790123,28.518518518518515,0)" xlink:href="#aX"/><use transform="matrix(0.06790123456790123,0,0,0.06790123456790123,35.30864197530864,0)" xlink:href="#aY"/><use transform="matrix(0.06790123456790123,0,0,0.06790123456790123,42.09876543209876,0)" xlink:href="#aT"/><use transform="matrix(0.06790123456790123,0,0,0.06790123456790123,56.969135802469125,0)" xlink:href="#aP"/></g><g id="X"><use transform="matrix(0.06790123456790123,0,0,0.06790123456790123,0,0)" xlink:href="#aX"/><use transform="matrix(0.06790123456790123,0,0,0.06790123456790123,6.790123456790123,0)" xlink:href="#aW"/></g><g id="Y"><use transform="matrix(0.06790123456790123,0,0,0.06790123456790123,0,0)" xlink:href="#aT"/><use transform="matrix(0.06790123456790123,0,0,0.06790123456790123,14.87037037037037,0)" xlink:href="#aP"/><use transform="matrix(0.06790123456790123,0,0,0.06790123456790123,28.450617283950617,0)" xlink:href="#aZ"/><use transform="matrix(0.06790123456790123,0,0,0.06790123456790123,50.17901234567901,0)" xlink:href="#aW"/><use transform="matrix(0.06790123456790123,0,0,0.06790123456790123,63.75925925925925,0)" xlink:href="#aS"/><use transform="matrix(0.06790123456790123,0,0,0.06790123456790123,78.62962962962965,0)" xlink:href="#aT"/><use transform="matrix(0.06790123456790123,0,0,0.06790123456790123,93.5,0)" xlink:href="#aP"/></g><path fill="#333" d="M15-91v-56l181-69v40L49-119l147 57v40" id="ba"/><g id="Z"><use transform="matrix(0.04938271604938272,0,0,0.04938271604938272,0,0)" xlink:href="#ba"/><use transform="matrix(0.04938271604938272,0,0,0.04938271604938272,10.370370370370372,0)" xlink:href="#ba"/></g><path fill="#333" d="M190-63c-7 42-38 67-86 67-59 0-84-38-90-98-12-110 154-137 174-36l-49 2c-2-19-15-32-35-32-30 0-35 28-38 64-6 74 65 87 74 30" id="bb"/><path fill="#333" d="M85 4C-2 5 27-109 22-190h50c7 57-23 150 33 157 60-5 35-97 40-157h50l1 190h-47c-2-12 1-28-3-38-12 25-28 42-61 42" id="bc"/><g id="aa"><use transform="matrix(0.04938271604938272,0,0,0.04938271604938272,0,0)" xlink:href="#aY"/><use transform="matrix(0.04938271604938272,0,0,0.04938271604938272,4.938271604938272,0)" xlink:href="#aS"/><use transform="matrix(0.04938271604938272,0,0,0.04938271604938272,15.753086419753087,0)" xlink:href="#bb"/><use transform="matrix(0.04938271604938272,0,0,0.04938271604938272,25.629629629629633,0)" xlink:href="#aX"/><use transform="matrix(0.04938271604938272,0,0,0.04938271604938272,30.567901234567906,0)" xlink:href="#bc"/><use transform="matrix(0.04938271604938272,0,0,0.04938271604938272,41.38271604938272,0)" xlink:href="#aT"/><use transform="matrix(0.04938271604938272,0,0,0.04938271604938272,52.19753086419754,0)" xlink:href="#aP"/><use transform="matrix(0.04938271604938272,0,0,0.04938271604938272,62.074074074074076,0)" xlink:href="#aU"/></g><path fill="#333" d="M15-22v-40l146-57-146-57v-40l181 69v56" id="bd"/><g id="ab"><use transform="matrix(0.04938271604938272,0,0,0.04938271604938272,0,0)" xlink:href="#bd"/><use transform="matrix(0.04938271604938272,0,0,0.04938271604938272,10.370370370370372,0)" xlink:href="#bd"/></g><g id="ac"><use transform="matrix(0.04938271604938272,0,0,0.04938271604938272,0,0)" xlink:href="#bd"/><use transform="matrix(0.04938271604938272,0,0,0.04938271604938272,10.370370370370372,0)" xlink:href="#bd"/></g></defs></g></svg>