<svg width="61" height="62" viewBox="0 0 61 62" fill="none" xmlns="http://www.w3.org/2000/svg">
<path d="M41.9375 23.375C41.9375 26.4084 40.7325 29.3176 38.5875 31.4625C36.4426 33.6075 33.5334 34.8125 30.5 34.8125C27.4666 34.8125 24.5574 33.6075 22.4125 31.4625C20.2675 29.3176 19.0625 26.4084 19.0625 23.375C19.0625 20.3416 20.2675 17.4324 22.4125 15.2875C24.5574 13.1425 27.4666 11.9375 30.5 11.9375C33.5334 11.9375 36.4426 13.1425 38.5875 15.2875C40.7325 17.4324 41.9375 20.3416 41.9375 23.375Z" fill="white"/>
<path fill-rule="evenodd" clip-rule="evenodd" d="M0 31C0 22.9109 3.21338 15.1531 8.93324 9.43324C14.6531 3.71338 22.4109 0.5 30.5 0.5C38.5891 0.5 46.3469 3.71338 52.0668 9.43324C57.7866 15.1531 61 22.9109 61 31C61 39.0891 57.7866 46.8469 52.0668 52.5668C46.3469 58.2866 38.5891 61.5 30.5 61.5C22.4109 61.5 14.6531 58.2866 8.93324 52.5668C3.21338 46.8469 0 39.0891 0 31ZM30.5 4.3125C25.4743 4.31277 20.5508 5.73213 16.2962 8.40723C12.0415 11.0823 8.62877 14.9044 6.45061 19.4336C4.27246 23.9628 3.41747 29.015 3.98406 34.0087C4.55064 39.0023 6.51576 43.7346 9.65325 47.6606C12.3601 43.2991 18.3191 38.625 30.5 38.625C42.6809 38.625 48.6361 43.2953 51.3468 47.6606C54.4842 43.7346 56.4494 39.0023 57.0159 34.0087C57.5825 29.015 56.7275 23.9628 54.5494 19.4336C52.3712 14.9044 48.9585 11.0823 44.7038 8.40723C40.4492 5.73213 35.5257 4.31277 30.5 4.3125Z" fill="white"/>
</svg>
