<svg width="186" height="61" viewBox="0 0 186 61" fill="none" xmlns="http://www.w3.org/2000/svg">
<rect x="1" y="1" width="184" height="59" rx="14" stroke="white" stroke-width="2"/>
<path d="M20.8291 24.72C22.7758 24.72 24.2091 25.0733 25.1291 25.78C26.0625 26.4867 26.5291 27.56 26.5291 29C26.5291 29.6533 26.4025 30.2267 26.1491 30.72C25.9091 31.2 25.5825 31.6133 25.1691 31.96C24.7691 32.2933 24.3358 32.5667 23.8691 32.78L28.0691 39H24.7091L21.3091 33.52H19.6891V39H16.6691V24.72H20.8291ZM20.6091 27.2H19.6891V31.06H20.6691C21.6691 31.06 22.3825 30.8933 22.8091 30.56C23.2491 30.2267 23.4691 29.7333 23.4691 29.08C23.4691 28.4 23.2358 27.92 22.7691 27.64C22.3025 27.3467 21.5825 27.2 20.6091 27.2ZM34.1323 27.88C35.6389 27.88 36.8323 28.3133 37.7123 29.18C38.5923 30.0333 39.0323 31.2533 39.0323 32.84V34.28H31.9923C32.0189 35.12 32.2656 35.78 32.7323 36.26C33.2123 36.74 33.8723 36.98 34.7123 36.98C35.4056 36.98 36.0389 36.9133 36.6123 36.78C37.1989 36.6333 37.7989 36.4133 38.4123 36.12V38.42C37.8656 38.6867 37.2989 38.88 36.7123 39C36.1256 39.1333 35.4123 39.2 34.5723 39.2C33.4789 39.2 32.5123 39 31.6723 38.6C30.8323 38.1867 30.1723 37.5733 29.6923 36.76C29.2123 35.9333 28.9723 34.8867 28.9723 33.62C28.9723 32.3533 29.1856 31.2933 29.6123 30.44C30.0523 29.5867 30.6589 28.9467 31.4323 28.52C32.2056 28.0933 33.1056 27.88 34.1323 27.88ZM34.1523 30C33.5656 30 33.0856 30.1867 32.7123 30.56C32.3389 30.9333 32.1189 31.5133 32.0523 32.3H36.2323C36.2189 31.6467 36.0389 31.1 35.6923 30.66C35.3589 30.22 34.8456 30 34.1523 30ZM45.8887 39.2C44.262 39.2 43.002 38.7533 42.1087 37.86C41.2287 36.9667 40.7887 35.5467 40.7887 33.6C40.7887 32.2667 41.0153 31.18 41.4687 30.34C41.922 29.5 42.5487 28.88 43.3487 28.48C44.162 28.08 45.0953 27.88 46.1487 27.88C46.8953 27.88 47.542 27.9533 48.0887 28.1C48.6487 28.2467 49.1353 28.42 49.5487 28.62L48.6687 30.92C48.202 30.7333 47.762 30.58 47.3487 30.46C46.9487 30.34 46.5487 30.28 46.1487 30.28C44.602 30.28 43.8287 31.38 43.8287 33.58C43.8287 34.6733 44.0287 35.48 44.4287 36C44.842 36.52 45.4153 36.78 46.1487 36.78C46.7753 36.78 47.3287 36.7 47.8087 36.54C48.2887 36.3667 48.7553 36.1333 49.2087 35.84V38.38C48.7553 38.6733 48.2753 38.88 47.7687 39C47.2753 39.1333 46.6487 39.2 45.8887 39.2ZM54.7021 23.8V26.9C54.7021 27.4467 54.6821 27.9667 54.6421 28.46C54.6154 28.94 54.5888 29.28 54.5621 29.48H54.7221C55.0688 28.92 55.5154 28.5133 56.0621 28.26C56.6088 28.0067 57.2154 27.88 57.8821 27.88C59.0554 27.88 60.0021 28.2 60.7221 28.84C61.4421 29.4667 61.8021 30.48 61.8021 31.88V39H58.8221V32.62C58.8221 31.0467 58.2354 30.26 57.0621 30.26C56.1688 30.26 55.5488 30.5733 55.2021 31.2C54.8688 31.8133 54.7021 32.7 54.7021 33.86V39H51.7221V23.8H54.7021ZM69.3666 27.88C70.8733 27.88 72.0666 28.3133 72.9466 29.18C73.8266 30.0333 74.2666 31.2533 74.2666 32.84V34.28H67.2266C67.2533 35.12 67.5 35.78 67.9666 36.26C68.4466 36.74 69.1066 36.98 69.9466 36.98C70.64 36.98 71.2733 36.9133 71.8466 36.78C72.4333 36.6333 73.0333 36.4133 73.6466 36.12V38.42C73.1 38.6867 72.5333 38.88 71.9466 39C71.36 39.1333 70.6466 39.2 69.8066 39.2C68.7133 39.2 67.7466 39 66.9066 38.6C66.0666 38.1867 65.4066 37.5733 64.9266 36.76C64.4466 35.9333 64.2066 34.8867 64.2066 33.62C64.2066 32.3533 64.42 31.2933 64.8466 30.44C65.2866 29.5867 65.8933 28.9467 66.6666 28.52C67.44 28.0933 68.34 27.88 69.3666 27.88ZM69.3866 30C68.8 30 68.32 30.1867 67.9466 30.56C67.5733 30.9333 67.3533 31.5133 67.2866 32.3H71.4666C71.4533 31.6467 71.2733 31.1 70.9266 30.66C70.5933 30.22 70.08 30 69.3866 30ZM82.783 27.88C82.9297 27.88 83.103 27.8867 83.303 27.9C83.503 27.9133 83.663 27.9333 83.783 27.96L83.563 30.76C83.4564 30.7333 83.3164 30.7133 83.143 30.7C82.9697 30.6733 82.8164 30.66 82.683 30.66C82.1764 30.66 81.6897 30.7533 81.223 30.94C80.7564 31.1133 80.3764 31.4 80.083 31.8C79.803 32.2 79.663 32.7467 79.663 33.44V39H76.683V28.08H78.943L79.383 29.92H79.523C79.843 29.36 80.283 28.88 80.843 28.48C81.403 28.08 82.0497 27.88 82.783 27.88ZM89.8145 39.2C88.1878 39.2 86.9278 38.7533 86.0345 37.86C85.1545 36.9667 84.7145 35.5467 84.7145 33.6C84.7145 32.2667 84.9411 31.18 85.3945 30.34C85.8478 29.5 86.4745 28.88 87.2745 28.48C88.0878 28.08 89.0211 27.88 90.0745 27.88C90.8211 27.88 91.4678 27.9533 92.0145 28.1C92.5745 28.2467 93.0611 28.42 93.4745 28.62L92.5945 30.92C92.1278 30.7333 91.6878 30.58 91.2745 30.46C90.8745 30.34 90.4745 30.28 90.0745 30.28C88.5278 30.28 87.7545 31.38 87.7545 33.58C87.7545 34.6733 87.9545 35.48 88.3545 36C88.7678 36.52 89.3411 36.78 90.0745 36.78C90.7011 36.78 91.2545 36.7 91.7345 36.54C92.2145 36.3667 92.6811 36.1333 93.1345 35.84V38.38C92.6811 38.6733 92.2011 38.88 91.6945 39C91.2011 39.1333 90.5745 39.2 89.8145 39.2ZM98.6279 23.8V26.9C98.6279 27.4467 98.6079 27.9667 98.5679 28.46C98.5412 28.94 98.5146 29.28 98.4879 29.48H98.6479C98.9946 28.92 99.4412 28.5133 99.9879 28.26C100.535 28.0067 101.141 27.88 101.808 27.88C102.981 27.88 103.928 28.2 104.648 28.84C105.368 29.4667 105.728 30.48 105.728 31.88V39H102.748V32.62C102.748 31.0467 102.161 30.26 100.988 30.26C100.095 30.26 99.4746 30.5733 99.1279 31.2C98.7946 31.8133 98.6279 32.7 98.6279 33.86V39H95.6479V23.8H98.6279ZM113.292 27.88C114.799 27.88 115.992 28.3133 116.872 29.18C117.752 30.0333 118.192 31.2533 118.192 32.84V34.28H111.152C111.179 35.12 111.426 35.78 111.892 36.26C112.372 36.74 113.032 36.98 113.872 36.98C114.566 36.98 115.199 36.9133 115.772 36.78C116.359 36.6333 116.959 36.4133 117.572 36.12V38.42C117.026 38.6867 116.459 38.88 115.872 39C115.286 39.1333 114.572 39.2 113.732 39.2C112.639 39.2 111.672 39 110.832 38.6C109.992 38.1867 109.332 37.5733 108.852 36.76C108.372 35.9333 108.132 34.8867 108.132 33.62C108.132 32.3533 108.346 31.2933 108.772 30.44C109.212 29.5867 109.819 28.9467 110.592 28.52C111.366 28.0933 112.266 27.88 113.292 27.88ZM113.312 30C112.726 30 112.246 30.1867 111.872 30.56C111.499 30.9333 111.279 31.5133 111.212 32.3H115.392C115.379 31.6467 115.199 31.1 114.852 30.66C114.519 30.22 114.006 30 113.312 30ZM126.709 27.88C126.855 27.88 127.029 27.8867 127.229 27.9C127.429 27.9133 127.589 27.9333 127.709 27.96L127.489 30.76C127.382 30.7333 127.242 30.7133 127.069 30.7C126.895 30.6733 126.742 30.66 126.609 30.66C126.102 30.66 125.615 30.7533 125.149 30.94C124.682 31.1133 124.302 31.4 124.009 31.8C123.729 32.2 123.589 32.7467 123.589 33.44V39H120.609V28.08H122.869L123.309 29.92H123.449C123.769 29.36 124.209 28.88 124.769 28.48C125.329 28.08 125.975 27.88 126.709 27.88Z" fill="white"/>
<path d="M167.094 37.5045C169.576 34.1183 170.687 29.92 170.206 25.7495C169.725 21.579 167.687 17.7439 164.5 15.0114C161.313 12.279 157.212 10.8507 153.017 11.0124C148.822 11.174 144.842 12.9136 141.875 15.8832C138.907 18.8528 137.171 22.8334 137.012 27.0285C136.853 31.2236 138.284 35.324 141.019 38.5092C143.754 41.6944 147.59 43.7296 151.761 44.2076C155.932 44.6856 160.13 43.5712 163.514 41.0872H163.512C163.588 41.1897 163.67 41.2871 163.763 41.382L173.629 51.2486C174.11 51.7295 174.762 51.9998 175.442 52C176.121 52.0002 176.773 51.7304 177.254 51.2499C177.735 50.7693 178.006 50.1175 178.006 49.4376C178.006 48.7578 177.736 48.1057 177.256 47.6248L167.389 37.7582C167.297 37.6655 167.199 37.5823 167.094 37.5045ZM167.755 27.6532C167.755 29.5042 167.391 31.3371 166.683 33.0472C165.974 34.7573 164.936 36.3112 163.627 37.62C162.318 38.9289 160.764 39.9671 159.054 40.6755C157.344 41.3838 155.511 41.7484 153.66 41.7484C151.809 41.7484 149.976 41.3838 148.266 40.6755C146.556 39.9671 145.002 38.9289 143.693 37.62C142.385 36.3112 141.346 34.7573 140.638 33.0472C139.93 31.3371 139.565 29.5042 139.565 27.6532C139.565 23.9149 141.05 20.3298 143.693 17.6864C146.337 15.043 149.922 13.558 153.66 13.558C157.399 13.558 160.984 15.043 163.627 17.6864C166.27 20.3298 167.755 23.9149 167.755 27.6532Z" fill="white"/>
</svg>
